<svg width="25" height="25" viewBox="0 0 25 25" fill="none" xmlns="http://www.w3.org/2000/svg">
<g clip-path="url(#clip0_458_3339)">
<path d="M12.0071 24.0144C18.6384 24.0144 24.0142 18.6387 24.0142 12.0073C24.0142 5.376 18.6384 0.000244141 12.0071 0.000244141C5.37576 0.000244141 0 5.376 0 12.0073C0 18.6387 5.37576 24.0144 12.0071 24.0144Z" fill="#F0F0F0"/>
<path d="M3.51679 20.4975C-1.17226 15.8084 -1.17226 8.20594 3.51679 3.51685C3.51646 3.51736 10.441 12.0072 10.441 12.0072L3.51679 20.4975Z" fill="black"/>
<path d="M10.4408 12.0073L1.59229 6.02783C1.31796 6.50469 1.07604 7.00242 0.868164 7.5176L5.34779 12.0074L0.868305 16.4974C1.07599 17.0122 1.31768 17.5096 1.59183 17.9861L10.4408 12.0073Z" fill="#FFDA44"/>
<path d="M23.9123 10.4411H10.4404L3.51645 3.51709C2.77032 4.26322 2.12208 5.10704 1.59227 6.02779L7.56012 12.0072L1.5918 17.9859C2.12161 18.9069 2.77013 19.751 3.51645 20.4973L10.4404 13.5734H23.9123C23.9791 13.0607 24.014 12.538 24.014 12.0072C24.014 11.4764 23.9791 10.9537 23.9123 10.4411Z" fill="#6DA544"/>
<path d="M4.69531 21.5322C6.72006 23.0885 9.25454 24.0144 12.0057 24.0144C17.5533 24.0144 22.2213 20.2519 23.5991 15.1396H11.0879L4.69531 21.5322Z" fill="#0052B4"/>
<path d="M23.5991 8.87479C22.2213 3.76258 17.5533 0 12.0057 0C9.25454 0 6.72006 0.925906 4.69531 2.48223L11.0879 8.87479H23.5991Z" fill="#D80027"/>
</g>
<defs>
<clipPath id="clip0_458_3339">
<rect width="24.0142" height="24.0142" fill="white"/>
</clipPath>
</defs>
</svg>
