<svg width="24" height="24" viewBox="0 0 24 24" fill="none" xmlns="http://www.w3.org/2000/svg">
<g clip-path="url(#clip0_458_3341)">
<path d="M0 12.0003C0 13.4682 0.264047 14.8742 0.746391 16.1742L12 17.2177L23.2536 16.1742C23.736 14.8742 24 13.4682 24 12.0003C24 10.5325 23.736 9.12643 23.2536 7.82644L12 6.78296L0.746391 7.82644C0.264047 9.12643 0 10.5325 0 12.0003H0Z" fill="#FFDA44"/>
<path d="M23.2533 7.82635C21.5578 3.25679 17.1593 0.000244141 11.9997 0.000244141C6.84013 0.000244141 2.44161 3.25679 0.746094 7.82635H23.2533Z" fill="#D80027"/>
<path d="M0.746094 16.1743C2.44161 20.7439 6.84013 24.0004 11.9997 24.0004C17.1593 24.0004 21.5578 20.7439 23.2533 16.1743H0.746094Z" fill="#D80027"/>
</g>
<defs>
<clipPath id="clip0_458_3341">
<rect width="24" height="24" fill="white"/>
</clipPath>
</defs>
</svg>
