<svg width="24" height="24" viewBox="0 0 24 24" fill="none" xmlns="http://www.w3.org/2000/svg">
<g clip-path="url(#clip0_457_2350)">
<circle cx="12" cy="12" r="12" fill="#496E2D"/>
<path d="M17.7656 8.25V12.7969H17.0156C16.8844 12.7969 16.7672 12.7875 16.65 12.7781C16.7906 12.5766 16.8938 12.3609 16.95 12.1359C17.0123 11.9069 17.0278 11.6676 16.9955 11.4325C16.9633 11.1973 16.8841 10.9711 16.7625 10.7672C16.6293 10.5568 16.4453 10.3834 16.2273 10.2629C16.0094 10.1425 15.7646 10.0789 15.5156 10.0781C15.2674 10.0797 15.0236 10.1436 14.8065 10.264C14.5895 10.3844 14.4062 10.5575 14.2734 10.7672C14.025 11.1703 13.9594 11.6578 14.0812 12.1359C14.1375 12.3609 14.2406 12.5766 14.3812 12.7781C14.2641 12.7875 14.1469 12.7969 14.0156 12.7969H13.2656V10.0781H12.1406V13.9219C12.1406 14.1084 12.0665 14.2872 11.9347 14.4191C11.8028 14.5509 11.624 14.625 11.4375 14.625V15.75C11.9223 15.75 12.3873 15.5574 12.7302 15.2146C13.073 14.8717 13.2656 14.4067 13.2656 13.9219H14.0156C14.5969 13.9219 15.0938 13.8141 15.5156 13.6406C15.9375 13.8141 16.4344 13.9219 17.0156 13.9219H18.8906V8.25H17.7656ZM19.5938 8.25V13.9219H20.7188V8.25H19.5938ZM4.125 8.25V9.375H5.25V8.25H4.125ZM5.95312 8.25V9.375H7.07812V8.25H5.95312ZM7.07812 10.0781C6.0587 10.0781 5.08103 10.4831 4.36018 11.2039C3.63934 11.9248 3.23438 12.9024 3.23438 13.9219H4.35938C4.35939 13.3999 4.50968 12.8889 4.7923 12.45C5.07491 12.0111 5.4779 11.6629 5.95312 11.4469V13.9219H10.7344V10.0781H9.60938V12.7969H8.90625V10.0781H7.78125V12.7969H7.07812V10.0781ZM15.5156 11.2031C15.675 11.2031 15.7359 11.25 15.8016 11.3625C15.8436 11.4383 15.8702 11.5216 15.8798 11.6077C15.8895 11.6937 15.882 11.7809 15.8578 11.8641C15.8156 12.0328 15.7172 12.225 15.5156 12.3891C15.3492 12.2544 15.2294 12.0707 15.1734 11.8641C15.1492 11.7809 15.1418 11.6937 15.1514 11.6077C15.1611 11.5216 15.1877 11.4383 15.2297 11.3625C15.2953 11.25 15.3562 11.2031 15.5156 11.2031ZM5.95312 14.625V15.75H7.07812V14.625H5.95312ZM7.78125 14.625V15.75H8.90625V14.625H7.78125ZM9.60938 14.625V15.75H10.7344V14.625H9.60938Z" fill="#EEEEEE"/>
</g>
<defs>
<clipPath id="clip0_457_2350">
<rect width="24" height="24" fill="white"/>
</clipPath>
</defs>
</svg>
