<svg width="24" height="24" viewBox="0 0 24 24" fill="none" xmlns="http://www.w3.org/2000/svg">
<g clip-path="url(#clip0_458_3159)">
<path d="M24 12C24 10.5322 23.736 9.12609 23.2536 7.82615L12 7.30438L0.746391 7.8261C0.264 9.12608 0 10.5322 0 12C0 13.4679 0.264 14.874 0.746391 16.1739L12 16.6957L23.2536 16.174C23.736 14.874 24 13.4679 24 12Z" fill="#FFDA44"/>
<path d="M12.0007 24.0001C17.1603 24.0001 21.5588 20.7436 23.2543 16.174H0.74707C2.44259 20.7436 6.8411 24.0001 12.0007 24.0001Z" fill="#6DA544"/>
<path d="M0.74707 7.82605H23.2543C21.5588 3.25644 17.1603 -6.10352e-05 12.0007 -6.10352e-05C6.8411 -6.10352e-05 2.44259 3.25644 0.74707 7.82605V7.82605Z" fill="#D80027"/>
</g>
<defs>
<clipPath id="clip0_458_3159">
<rect width="24" height="24" fill="white"/>
</clipPath>
</defs>
</svg>
