<svg width="24" height="24" viewBox="0 0 24 24" fill="none" xmlns="http://www.w3.org/2000/svg">
<g clip-path="url(#clip0_458_3145)">
<path d="M24 12.0001C24 10.5323 23.736 9.12615 23.2536 7.82621L12 7.30444L0.746391 7.82616C0.264047 9.12615 0 10.5323 0 12.0001C0 13.4679 0.264047 14.8741 0.746391 16.174L12 16.6958L23.2536 16.174C23.736 14.8741 24 13.4679 24 12.0001Z" fill="#D80027"/>
<path d="M12.0007 24.0003C17.1603 24.0003 21.5588 20.7438 23.2543 16.1742H0.74707C2.44259 20.7438 6.8411 24.0003 12.0007 24.0003Z" fill="#6DA544"/>
<path d="M0.74707 7.82623H23.2543C21.5588 3.25662 17.1603 0.00012207 12.0007 0.00012207C6.8411 0.00012207 2.44259 3.25662 0.74707 7.82623V7.82623Z" fill="#338AF3"/>
<path d="M12.2605 15.3915C10.3875 15.3915 8.86915 13.8731 8.86915 12.0002C8.86915 10.1272 10.3875 8.60886 12.2605 8.60886C12.8444 8.60886 13.3939 8.75651 13.8737 9.01648C13.121 8.2805 12.0919 7.82623 10.9561 7.82623C8.6509 7.82623 6.78223 9.69495 6.78223 12.0001C6.78223 14.3053 8.65095 16.174 10.9561 16.174C12.0919 16.174 13.1211 15.7197 13.8737 14.9838C13.3939 15.2438 12.8444 15.3915 12.2605 15.3915Z" fill="#F0F0F0"/>
<path d="M14.8693 9.65234L15.3185 10.9157L16.5295 10.34L15.9538 11.5509L17.2171 12.0002L15.9538 12.4494L16.5295 13.6604L15.3185 13.0847L14.8693 14.348L14.4202 13.0847L13.2091 13.6604L13.7849 12.4494L12.5215 12.0002L13.7849 11.5509L13.2091 10.34L14.4202 10.9157L14.8693 9.65234Z" fill="#F0F0F0"/>
</g>
<defs>
<clipPath id="clip0_458_3145">
<rect width="24" height="24" fill="white"/>
</clipPath>
</defs>
</svg>
