<svg width="24" height="24" viewBox="0 0 24 24" fill="none" xmlns="http://www.w3.org/2000/svg">
<g clip-path="url(#clip0_458_3153)">
<path d="M12 23.9996C18.6274 23.9996 24 18.6271 24 11.9996C24 5.37222 18.6274 -0.000366211 12 -0.000366211C5.37258 -0.000366211 0 5.37222 0 11.9996C0 18.6271 5.37258 23.9996 12 23.9996Z" fill="#FCFCFC"/>
<path d="M4.95376 11.1305L3.64941 8.76408L4.95376 6.43481L6.2581 8.76408L4.95376 11.1305Z" fill="#A2001D"/>
<path d="M2.34634 11.1305L1.04199 8.76408L2.34634 6.43481L3.65068 8.76408L2.34634 11.1305Z" fill="#A2001D"/>
<path d="M4.95376 17.5653L3.64941 15.1989L4.95376 12.8696L6.2581 15.1989L4.95376 17.5653Z" fill="#A2001D"/>
<path d="M2.34634 17.5653L1.04199 15.1989L2.34634 12.8696L3.65068 15.1989L2.34634 17.5653Z" fill="#A2001D"/>
<path d="M6.25943 2.32924L5.89015 1.6698C5.2278 2.06224 4.60657 2.5166 4.03418 3.02491L4.95509 4.69558L6.25943 2.32924Z" fill="#A2001D"/>
<path d="M4.95409 19.3044L4.02344 20.9664C4.59531 21.4754 5.21612 21.9305 5.87819 22.3237L6.25848 21.6338L4.95409 19.3044Z" fill="#A2001D"/>
<path d="M7.30273 15.1305V23.0459C8.74503 23.6599 10.3319 24 11.9984 24C17.158 24 21.5565 20.7435 23.252 16.1739L7.30273 15.1305Z" fill="#6DA544"/>
<path d="M23.252 16.1738C23.7344 14.8738 23.9984 13.4678 23.9984 11.9999C23.9984 5.37256 18.6258 -6.10352e-05 11.9984 -6.10352e-05C10.332 -6.10352e-05 8.74503 0.339923 7.30273 0.953752V16.1739H23.252V16.1738Z" fill="#A2001D"/>
</g>
<defs>
<clipPath id="clip0_458_3153">
<rect width="24" height="24" fill="white"/>
</clipPath>
</defs>
</svg>
