<svg width="25" height="25" viewBox="0 0 25 25" fill="none" xmlns="http://www.w3.org/2000/svg">
<g clip-path="url(#clip0_458_3168)">
<path d="M24.0142 12.0068C24.0142 10.5381 23.75 9.13113 23.2673 7.83042L12.0071 7.30835L0.746832 7.83038C0.264203 9.13113 0 10.5381 0 12.0068C0 13.4755 0.264203 14.8824 0.746832 16.1831L12.0071 16.7052L23.2673 16.1832C23.75 14.8824 24.0142 13.4755 24.0142 12.0068Z" fill="#496E2D"/>
<path d="M12.0064 24.014C17.169 24.014 21.5701 20.7555 23.2666 16.1832H0.746094C2.44261 20.7555 6.84373 24.014 12.0064 24.014Z" fill="#D80027"/>
<path d="M0.746094 7.83061H23.2667C21.5701 3.2583 17.169 -0.00012207 12.0064 -0.00012207C6.84373 -0.00012207 2.44261 3.2583 0.746094 7.83061Z" fill="#F0F0F0"/>
</g>
<defs>
<clipPath id="clip0_458_3168">
<rect width="24.0142" height="24.0142" fill="white"/>
</clipPath>
</defs>
</svg>
