<svg width="25" height="25" viewBox="0 0 25 25" fill="none" xmlns="http://www.w3.org/2000/svg">
<g clip-path="url(#clip0_458_3161)">
<path d="M12.0071 24.0139C18.6384 24.0139 24.0142 18.6382 24.0142 12.0068C24.0142 5.37551 18.6384 -0.000244141 12.0071 -0.000244141C5.37576 -0.000244141 0 5.37551 0 12.0068C0 18.6382 5.37576 24.0139 12.0071 24.0139Z" fill="#F0F0F0"/>
<path d="M12.0059 -0.000244141C7.74851 -0.000244141 4.00896 2.21558 1.87695 5.55674L18.1596 22.3184C21.6653 20.2217 24.013 16.3886 24.013 12.0068C24.013 5.37556 18.6372 -0.000244141 12.0059 -0.000244141Z" fill="#FFDA44"/>
<path d="M24.0132 12.0068C24.0132 8.8914 22.8266 6.05341 20.8809 3.91943V20.0942C22.8266 17.9601 24.0132 15.1221 24.0132 12.0068Z" fill="#0052B4"/>
<path d="M14.999 22.6011L16.2567 22.6003L16.6446 21.4039L17.034 22.5999L17.6649 22.5995C18.0517 22.3924 18.4258 22.1648 18.7858 21.918L2.09603 5.22827C1.821 5.62957 1.57016 6.0486 1.34461 6.48292L1.49291 6.93844L2.75061 6.93764L1.73357 7.67753L2.12296 8.8735L1.10498 8.13488L0.497825 8.57651C0.17415 9.66353 0 10.8149 0 12.0071C0 18.6384 5.3758 24.0142 12.0071 24.0142C13.4091 24.0142 14.7548 23.7735 16.0055 23.3316L14.999 22.6011ZM2.6781 11.485L3.06598 10.2887L2.0481 9.54993L3.3058 9.54914L3.69373 8.35269L4.08311 9.54867L5.34081 9.54787L4.32373 10.2878L4.71311 11.4837L3.69514 10.7451L2.6781 11.485ZM5.2683 14.0953L5.65618 12.8989L4.6383 12.1602L5.896 12.1594L6.28393 10.9629L6.67332 12.1589L7.93101 12.1581L6.91397 12.898L7.30336 14.094L6.28538 13.3553L5.2683 14.0953ZM7.85845 16.7055L8.24634 15.5091L7.22846 14.7704L8.48615 14.7696L8.87408 13.5732L9.26347 14.7691L10.5212 14.7683L9.50413 15.5082L9.89351 16.7042L8.87554 15.9655L7.85845 16.7055ZM11.4657 18.5758L10.4486 19.3157L10.8365 18.1193L9.81861 17.3806L11.0763 17.3798L11.4643 16.1834L11.8537 17.3794L13.1114 17.3786L12.0943 18.1184L12.4837 19.3144L11.4657 18.5758ZM13.0388 21.926L13.4267 20.7296L12.4088 19.9908L13.6665 19.9901L14.0544 18.7936L14.4438 19.9896L15.7015 19.9888L14.6845 20.7287L15.0739 21.9246L14.0559 21.1859L13.0388 21.926Z" fill="#0052B4"/>
</g>
<defs>
<clipPath id="clip0_458_3161">
<rect width="24.0142" height="24.0142" fill="white"/>
</clipPath>
</defs>
</svg>
