<svg width="24" height="24" viewBox="0 0 24 24" fill="none" xmlns="http://www.w3.org/2000/svg">
<g clip-path="url(#clip0_458_3136)">
<path d="M6.77981 22.8092C8.35744 23.5721 10.1273 23.9999 11.9972 23.9999C13.8671 23.9999 15.6369 23.5721 17.2146 22.8092L18.258 11.9999L17.2146 1.19066C15.6369 0.427814 13.8671 -6.10352e-05 11.9972 -6.10352e-05C10.1273 -6.10352e-05 8.35744 0.427814 6.77981 1.19066L5.73633 11.9999L6.77981 22.8092Z" fill="#FFDA44"/>
<path d="M17.2158 22.8088C21.2298 20.8679 23.9984 16.7574 23.9984 12C23.9984 7.24248 21.2298 3.13201 17.2158 1.1911V22.8088Z" fill="#D80027"/>
<path d="M6.78262 22.8088V1.1911C2.76867 3.13201 0 7.24243 0 12C0 16.7575 2.76867 20.8679 6.78262 22.8088Z" fill="#0052B4"/>
<path d="M12.001 16.1735C12.001 14.2586 12.001 11.9996 12.001 11.9996H15.1314V13.5648C15.1314 13.8367 14.6097 14.8331 13.3219 15.6517C12.8342 15.9619 12.3293 16.0616 12.001 16.1735Z" fill="#D80027"/>
<path d="M8.86816 8.8692H11.9986V11.9997H8.86816V8.8692Z" fill="#D80027"/>
<path d="M13.5653 7.82602C13.5653 7.24969 13.0981 6.78253 12.5218 6.78253C12.3315 6.78253 12.1536 6.83428 12.0001 6.92325C11.8465 6.83428 11.6687 6.78253 11.4783 6.78253C10.9021 6.78253 10.4349 7.24969 10.4349 7.82602H7.82617V13.0433C7.82617 14.9857 9.36864 16.1089 10.5782 16.6912C10.4877 16.8458 10.4349 17.0252 10.4349 17.2173C10.4349 17.7937 10.9021 18.2608 11.4783 18.2608C11.6687 18.2608 11.8465 18.2091 12.0001 18.1201C12.1537 18.2091 12.3315 18.2608 12.5218 18.2608C13.0981 18.2608 13.5653 17.7937 13.5653 17.2173C13.5653 17.0252 13.5124 16.8458 13.4218 16.6912C14.6314 16.1089 16.174 14.9857 16.174 13.0433V7.82602H13.5653ZM14.6088 13.0433C14.6088 13.3153 14.6087 14.1427 13.321 14.9614C12.8332 15.2715 12.3284 15.4726 12.0001 15.5844C11.6717 15.4726 11.1669 15.2715 10.6791 14.9614C9.39138 14.1427 9.39138 13.3153 9.39138 13.0433V9.39122H14.6088V13.0433Z" fill="#FF9811"/>
</g>
<defs>
<clipPath id="clip0_458_3136">
<rect width="24" height="24" fill="white"/>
</clipPath>
</defs>
</svg>
