<svg width="24" height="24" viewBox="0 0 24 24" fill="none" xmlns="http://www.w3.org/2000/svg">
<g clip-path="url(#clip0_458_3309)">
<path d="M12 23.9999C18.6274 23.9999 24 18.6274 24 11.9999C24 5.37252 18.6274 -6.10352e-05 12 -6.10352e-05C5.37258 -6.10352e-05 0 5.37252 0 11.9999C0 18.6274 5.37258 23.9999 12 23.9999Z" fill="#F0F0F0"/>
<path d="M12 -6.10352e-05V11.9999L3.51465 20.4853C5.68623 22.6568 8.68623 23.9999 12 23.9999C18.6273 23.9999 24 18.6273 24 11.9999C24 5.37256 12 -6.10352e-05 12 -6.10352e-05Z" fill="#D80027"/>
<path d="M12 -6.10352e-05C8.68623 -6.10352e-05 5.68623 1.3431 3.51465 3.51463C6.45887 6.45885 7.50404 7.50406 12 11.9999H24C24 5.37256 18.6273 -6.10352e-05 12 -6.10352e-05Z" fill="#0052B4"/>
<path d="M8.21625 12.0001L6.75075 11.3107L7.53117 9.89141L5.93977 10.1959L5.73811 8.5882L4.62961 9.77057L3.52116 8.5882L3.31945 10.1959L1.72809 9.89137L2.50852 11.3107L1.04297 12.0001L2.50852 12.6894L1.72809 14.1088L3.31959 13.8044L3.52111 15.412L4.62961 14.2296L5.73811 15.412L5.93977 13.8044L7.53108 14.1088L6.7507 12.6895L8.21625 12.0001Z" fill="#FFDA44"/>
<path d="M3.19887 4.69562L3.68655 5.37732L4.48554 5.12424L3.98782 5.79868L4.47551 6.48038L3.68023 6.21549L3.18255 6.88988L3.18879 6.05176L2.39355 5.78682L3.19268 5.53374L3.19887 4.69562Z" fill="#FFDA44"/>
<path d="M3.19887 17.11L3.68655 17.7917L4.48554 17.5386L3.98782 18.2131L4.47551 18.8948L3.68023 18.6299L3.18255 19.3043L3.18879 18.4662L2.39355 18.2012L3.19268 17.9482L3.19887 17.11Z" fill="#FFDA44"/>
<path d="M10.1568 10.9029L9.66915 11.5846L8.87012 11.3314L9.36784 12.0059L8.88015 12.6877L9.67543 12.4227L10.1731 13.0971L10.1669 12.259L10.9621 11.9941L10.163 11.741L10.1568 10.9029Z" fill="#FFDA44"/>
</g>
<defs>
<clipPath id="clip0_458_3309">
<rect width="24" height="24" fill="white"/>
</clipPath>
</defs>
</svg>
