<svg width="24" height="24" viewBox="0 0 24 24" fill="none" xmlns="http://www.w3.org/2000/svg">
<g clip-path="url(#clip0_458_3238)">
<path d="M12 23.9999C18.6274 23.9999 24 18.6273 24 11.9999C24 5.37246 18.6274 -0.00012207 12 -0.00012207C5.37258 -0.00012207 0 5.37246 0 11.9999C0 18.6273 5.37258 23.9999 12 23.9999Z" fill="#F0F0F0"/>
<path d="M11.9997 -0.00012207C6.84012 -0.00012207 2.44161 3.25638 0.746094 7.82599H23.2534C21.5578 3.25638 17.1593 -0.00012207 11.9997 -0.00012207V-0.00012207Z" fill="#A2001D"/>
<path d="M11.9997 23.9999C17.1593 23.9999 21.5578 20.7434 23.2533 16.1738H0.746094C2.44161 20.7434 6.84013 23.9999 11.9997 23.9999Z" fill="black"/>
<path d="M9.13039 11.2172C9.12383 11.2172 9.11741 11.2176 9.11084 11.2177V11.2172H6.81692C6.93322 10.7679 7.34094 10.4346 7.82605 10.4346V8.86938C6.38759 8.86938 5.21736 10.0397 5.21736 11.4781V12.7564V12.7825H9.11084H9.13039C9.27425 12.7825 9.39125 12.8995 9.39125 13.0433V13.565H4.17383V15.1302H10.9565V13.0433C10.9565 12.0364 10.1373 11.2172 9.13039 11.2172V11.2172Z" fill="#496E2D"/>
<path d="M13.0447 13.5648V8.86914H11.4795V15.13H14.0882V13.5648H13.0447Z" fill="#496E2D"/>
<path d="M18.2606 13.5648V8.86914H16.6954V13.5648H16.1736V11.9996H14.6084V15.1301H19.3041V13.5648H18.2606Z" fill="#496E2D"/>
</g>
<defs>
<clipPath id="clip0_458_3238">
<rect width="24" height="24" fill="white"/>
</clipPath>
</defs>
</svg>
