<svg width="24" height="24" viewBox="0 0 24 24" fill="none" xmlns="http://www.w3.org/2000/svg">
<g clip-path="url(#clip0_458_3380)">
<path d="M12 24.0004C18.6274 24.0004 24 18.6278 24 12.0004C24 5.37295 18.6274 0.000366211 12 0.000366211C5.37258 0.000366211 0 5.37295 0 12.0004C0 18.6278 5.37258 24.0004 12 24.0004Z" fill="#F0F0F0"/>
<path d="M24 12.0004C24 18.6277 18.6274 24.0004 12 24.0004C5.37262 24.0004 0 18.6277 0 12.0004" fill="#496E2D"/>
<path d="M20.7672 8.35066C20.3381 7.13364 19.1785 6.26111 17.8147 6.26111H15.1314C13.4025 6.26111 12.0009 7.66267 12.0009 9.39156C12.0009 9.95641 12.1513 10.4993 12.413 10.9568C11.4166 10.9486 10.4944 10.9637 9.91395 10.9568C9.91395 9.74945 9.91395 8.21148 9.91395 7.88969L10.0372 7.76641C10.5906 7.213 10.4061 6.29069 10.4061 6.29069C10.4061 6.29069 9.48387 6.10623 8.93046 6.65964L8.28551 7.30459H7.56612C5.98127 7.30459 4.69657 8.58934 4.69657 10.1741H6.78354V12.522C6.78354 12.8654 6.85277 13.1925 6.97788 13.4905L6.26177 14.0872H5.21829V13.0437H4.1748V15.1307H8.87046V17.2176H7.82698V18.2611H9.91395V16.1741L10.8704 15.0263H13.1314L14.0878 16.1741V17.2176H13.0444V18.2611H17.2182V12.5219C17.2182 11.6575 17.919 10.9567 18.7834 10.9567C18.8057 10.9567 18.8277 10.9575 18.8497 10.9584C18.8065 10.7912 18.7834 10.6158 18.7834 10.435C18.7835 9.31708 19.6626 8.40452 20.7672 8.35066V8.35066ZM15.1314 17.2176V15.0263H15.2183L16.1748 16.1741V17.2176H15.1314Z" fill="#D80027"/>
</g>
<defs>
<clipPath id="clip0_458_3380">
<rect width="24" height="24" fill="white"/>
</clipPath>
</defs>
</svg>
