<svg width="25" height="25" viewBox="0 0 25 25" fill="none" xmlns="http://www.w3.org/2000/svg">
<g clip-path="url(#clip0_458_3194)">
<path d="M12.0071 24.0147C18.6384 24.0147 24.0142 18.6389 24.0142 12.0076C24.0142 5.37625 18.6384 0.000488281 12.0071 0.000488281C5.37576 0.000488281 0 5.37625 0 12.0076C0 18.6389 5.37576 24.0147 12.0071 24.0147Z" fill="#F0F0F0"/>
<path d="M9.39751 10.4415H23.9131C23.1457 4.55014 18.1082 0.000488281 12.0077 0.000488281C11.1111 0.000488281 10.238 0.0995937 9.39746 0.285891V10.4415H9.39751Z" fill="#D80027"/>
<path d="M6.26253 10.4412V1.46021C2.9656 3.25911 0.605361 6.55876 0.0996094 10.4412H6.26253V10.4412Z" fill="#D80027"/>
<path d="M6.26248 13.574H0.0996094C0.605361 17.4564 2.9656 20.7561 6.26253 22.555L6.26248 13.574Z" fill="#D80027"/>
<path d="M9.39746 13.574V23.7295C10.238 23.9158 11.1111 24.0149 12.0077 24.0149C18.1082 24.0149 23.1457 19.4653 23.9131 13.574H9.39746V13.574Z" fill="#D80027"/>
</g>
<defs>
<clipPath id="clip0_458_3194">
<rect width="24.0142" height="24.0142" fill="white"/>
</clipPath>
</defs>
</svg>
