<svg width="24" height="24" viewBox="0 0 24 24" fill="none" xmlns="http://www.w3.org/2000/svg">
<g clip-path="url(#clip0_457_844)">
<path d="M0.74707 16.1742C2.44259 20.7437 6.8411 24.0003 12.0007 24.0003C17.1603 24.0003 21.5588 20.7437 23.2543 16.1742L12.0007 15.1307L0.74707 16.1742Z" fill="#FFDA44"/>
<path d="M12.0007 0.00012207C6.8411 0.00012207 2.44259 3.25662 0.74707 7.82623L12.0007 8.86967L23.2543 7.82619C21.5588 3.25662 17.1603 0.00012207 12.0007 0.00012207Z" fill="black"/>
<path d="M0.746391 7.82605C0.264047 9.12603 0 10.5321 0 11.9999C0 13.4678 0.264047 14.8738 0.746391 16.1738H23.2537C23.736 14.8738 24 13.4678 24 11.9999C24 10.5321 23.736 9.12603 23.2536 7.82605H0.746391Z" fill="#D80027"/>
</g>
<defs>
<clipPath id="clip0_457_844">
<rect width="24" height="24" fill="white"/>
</clipPath>
</defs>
</svg>
