<svg width="24" height="24" viewBox="0 0 24 24" fill="none" xmlns="http://www.w3.org/2000/svg">
<circle cx="12" cy="12" r="12" fill="#338AF3"/>
<path d="M19.9326 21C17.8176 22.8657 15.042 24 12 24C8.95797 24 6.18244 22.8657 4.06738 21H19.9326ZM23.6221 15C23.348 16.065 22.9282 17.071 22.3906 18H1.60938C1.07177 17.071 0.652035 16.065 0.37793 15H23.6221ZM23.6221 9C23.8689 9.95885 24 10.9641 24 12H0C0 10.9641 0.131141 9.95885 0.37793 9H23.6221ZM19.9326 3C20.9053 3.85797 21.7369 4.87042 22.3906 6H1.60938C2.26305 4.87042 3.09472 3.85797 4.06738 3H19.9326Z" fill="#EEEEEE"/>
<path d="M12 0C13.0359 0 14.0411 0.131141 15 0.37793V15H0.37793C0.131141 14.0411 0 13.0359 0 12C0 5.37258 5.37258 0 12 0Z" fill="#338AF3"/>
<path d="M9 6.00012H15V9.00012H9V15.0001H6V9.00012H0.37793C0.652031 7.93512 1.07176 6.92914 1.60938 6.00012H6V1.60852C6.9289 1.07103 7.93516 0.652111 9 0.378052V6.00012Z" fill="#EEEEEE"/>
</svg>
