<svg width="24" height="24" viewBox="0 0 24 24" fill="none" xmlns="http://www.w3.org/2000/svg">
<g clip-path="url(#clip0_457_2240)">
<mask id="mask0_457_2240" style="mask-type:alpha" maskUnits="userSpaceOnUse" x="0" y="0" width="24" height="24">
<path d="M20.4853 3.51475L20.4853 6.10352e-05H0V20.4854L3.51472 20.4853L16.5 16.5L20.4853 3.51475Z" fill="#FF00FF"/>
</mask>
<g mask="url(#mask0_457_2240)">
<path d="M23.5876 15.1304C23.8565 14.1324 24 13.083 24 12L23.5876 8.86959C23.2868 7.75333 22.829 6.70147 22.2393 5.73914L19.4709 2.60869C17.4223 0.976816 14.8277 0.00120207 12.0052 0H11.9948C9.17234 0.00120158 6.57774 0.976815 4.5291 2.60869L1.76073 5.73914C1.17105 6.70147 0.713227 7.75333 0.412405 8.86959L0 12L1.13056e-06 12.0053C0.000465378 13.0864 0.143897 14.1341 0.412415 15.1304L1.76073 18.2609C2.49517 19.4594 3.43415 20.5191 4.52911 21.3913L12 24L19.4709 21.3913C20.5658 20.5191 21.5048 19.4594 22.2393 18.2609L23.5876 15.1304Z" fill="#EEEEEE"/>
<path d="M23.5876 8.86957C23.8565 9.86757 24 10.917 24 12H0C0 10.917 0.143461 9.86757 0.412417 8.86957H23.5876Z" fill="#D80027"/>
<path d="M19.4709 2.6087C20.5658 3.48091 21.5048 4.54058 22.2393 5.73916H1.76073C2.49517 4.54058 3.43416 3.48091 4.52911 2.6087H19.4709Z" fill="#D80027"/>
<path d="M22.2393 18.2609C22.829 17.2986 23.2868 16.2467 23.5876 15.1304H0.412404C0.713226 16.2467 1.17105 17.2986 1.76072 18.2609H22.2393Z" fill="#D80027"/>
<path d="M19.4709 21.3913H4.5291C6.57651 23.0222 9.16926 23.9977 11.9897 24H12.0103C14.8307 23.9977 17.4235 23.0222 19.4709 21.3913Z" fill="#D80027"/>
<path d="M0 11.5118C0.256135 5.11073 5.52635 0 11.9902 0C11.9935 0 11.9967 1.29233e-06 12 3.87651e-06V12H0V11.5118Z" fill="#0052B4"/>
<path d="M2.50391 9.34399H3.81152L2.75391 10.1125L3.15723 11.3567L2.09961 10.5872L1.04199 11.3567L1.44531 10.1125L0.387695 9.34399H1.69531L2.09961 8.09985L2.50391 9.34399ZM6.40332 9.34399H7.71191L6.65332 10.1125L7.05762 11.3567L6 10.5872L4.94141 11.3567L5.3457 10.1125L4.28809 9.34399H5.5957L6 8.09985L6.40332 9.34399ZM10.3037 9.34399H11.6113L10.5537 10.1125L10.958 11.3567L9.89941 10.5872L8.8418 11.3567L9.24609 10.1125L8.1875 9.34399H9.49512L9.89941 8.09985L10.3037 9.34399ZM2.50391 5.4436H3.81152L2.75391 6.21216L3.15723 7.4563L2.09961 6.68774L1.04199 7.4563L1.37988 6.41235C1.65862 5.88369 1.97451 5.37795 2.32617 4.89966L2.50391 5.4436ZM6.40332 5.4436H7.71191L6.65332 6.21216L7.05762 7.4563L6 6.68774L4.94141 7.4563L5.3457 6.21216L4.28809 5.4436H5.5957L6 4.20044L6.40332 5.4436ZM10.3037 5.4436H11.6113L10.5537 6.21216L10.958 7.4563L9.89941 6.68774L8.8418 7.4563L9.24609 6.21216L8.1875 5.4436H9.49512L9.89941 4.20044L10.3037 5.4436ZM6.40332 1.54419H7.71191L6.65332 2.31274L7.05762 3.55591L6 2.78735L4.94141 3.55591L5.3457 2.31274L5.13477 2.15942C5.52647 1.88566 5.93442 1.63374 6.3584 1.40747L6.40332 1.54419ZM10.3037 1.54419H11.6113L10.5537 2.31274L10.958 3.55591L9.89941 2.78735L8.8418 3.55591L9.24609 2.31274L8.1875 1.54419H9.49512L9.89941 0.300049L10.3037 1.54419Z" fill="#EEEEEE"/>
</g>
<path d="M20.4858 3.51471C22.6573 5.68628 24.0005 8.68628 24.0005 12C24.0005 18.6254 18.6311 23.9968 12.0064 24C12.0044 24 12.0024 24 12.0005 24C11.9985 24 11.9965 24 11.9945 24C8.87396 23.9985 6.03192 22.8058 3.89844 20.852L9.00049 15.75V15L10.5005 13.5H13.5005V10.5L20.4858 3.51471Z" fill="#EEEEEE"/>
<path d="M21.5355 4.71417C22.4969 5.97056 23.2156 7.4225 23.6216 8.99998L17.2497 8.99997L21.5355 4.71417Z" fill="#0052B4"/>
<path d="M21.5355 19.2858C22.4969 18.0294 23.2156 16.5774 23.6216 15H17.2497L21.5355 19.2858Z" fill="#0052B4"/>
<path d="M19.2855 21.5358L14.9997 17.25L14.9997 23.6219C16.5772 23.2159 18.0291 22.4972 19.2855 21.5358Z" fill="#0052B4"/>
<path d="M8.9997 23.6219L8.9997 17.25L4.71387 21.5358C5.97026 22.4972 7.42221 23.2159 8.9997 23.6219Z" fill="#0052B4"/>
<path d="M23.9071 13.5C23.9684 13.0086 23.9999 12.508 23.9999 12C23.9999 11.492 23.9684 10.9914 23.9071 10.5L13.4999 10.5L10.4999 13.5L10.4999 23.9072C10.9894 23.9682 11.488 23.9998 11.994 24C11.996 24 11.9979 24 11.9999 24C12.0019 24 12.0039 24 12.0058 24C12.5118 23.9998 13.0105 23.9682 13.4999 23.9072L13.4999 13.5L23.9071 13.5Z" fill="#D80027"/>
<path d="M21.2022 19.7023L16.4999 15H14.9999L20.4852 20.4853C20.7355 20.235 20.9747 19.9737 21.2022 19.7023Z" fill="#D80027"/>
<path d="M4.29766 21.2023L8.99994 16.5V15L3.51465 20.4853C3.76491 20.7356 4.02618 20.9748 4.29766 21.2023Z" fill="#D80027"/>
</g>
<defs>
<clipPath id="clip0_457_2240">
<rect width="24" height="24" fill="white"/>
</clipPath>
</defs>
</svg>
