<svg width="25" height="25" viewBox="0 0 25 25" fill="none" xmlns="http://www.w3.org/2000/svg">
<g clip-path="url(#clip0_457_750)">
<path d="M0 12.0073C0 13.476 0.264203 14.8829 0.746832 16.1836L12.0071 16.7057L23.2673 16.1837C23.75 14.8829 24.0142 13.476 24.0142 12.0073C24.0142 10.5386 23.75 9.13166 23.2673 7.83091L12.0071 7.30884L0.746832 7.83086C0.264203 9.13166 0 10.5386 0 12.0073H0Z" fill="black"/>
<path d="M12.0064 -0.00012207C6.84373 -0.00012207 2.44261 3.2583 0.746094 7.83061H23.2667C21.5701 3.2583 17.169 -0.00012207 12.0064 -0.00012207Z" fill="#0052B4"/>
<path d="M23.2666 16.1836H0.746094C2.44261 20.7559 6.84373 24.0143 12.0064 24.0143C17.169 24.0143 21.5701 20.7559 23.2666 16.1836Z" fill="#F0F0F0"/>
</g>
<defs>
<clipPath id="clip0_457_750">
<rect width="24.0142" height="24.0142" fill="white"/>
</clipPath>
</defs>
</svg>
