<svg width="24" height="24" viewBox="0 0 24 24" fill="none" xmlns="http://www.w3.org/2000/svg">
<g clip-path="url(#clip0_458_3152)">
<path d="M12.001 23.9998C18.6284 23.9998 24.001 18.6272 24.001 11.9998C24.001 5.3724 18.6284 -0.000183105 12.001 -0.000183105C5.37356 -0.000183105 0.000976562 5.3724 0.000976562 11.9998C0.000976562 18.6272 5.37356 23.9998 12.001 23.9998Z" fill="#F0F0F0"/>
<path d="M0.103516 13.5655C0.382703 15.7083 1.22748 17.6731 2.48266 19.306L8.87144 13.5655H0.103516Z" fill="#D80027"/>
<path d="M10.4368 23.8987V15.1307L4.69629 21.5196C6.32927 22.7747 8.29399 23.6196 10.4368 23.8987V23.8987Z" fill="#D80027"/>
<path d="M10.4368 0.101624C8.29399 0.380811 6.32927 1.22559 4.69629 2.48076L10.4368 8.86964V0.101624Z" fill="#D80027"/>
<path d="M0.103516 10.4351H8.87144L2.48261 4.69458C1.22744 6.32752 0.382656 8.29228 0.103516 10.4351V10.4351Z" fill="#D80027"/>
<path d="M13.5664 0.101624V8.86959L19.307 2.48076C17.674 1.22569 15.7093 0.380764 13.5664 0.101624V0.101624Z" fill="#D80027"/>
<path d="M23.8988 10.4351C23.6196 8.29233 22.7749 6.32756 21.5197 4.69458L15.1309 10.4351H23.8988Z" fill="#D80027"/>
<path d="M15.1309 13.5655L21.5197 19.306C22.7749 17.6731 23.6197 15.7083 23.8989 13.5655H15.1309Z" fill="#D80027"/>
<path d="M13.5664 23.8987C15.7092 23.6195 17.674 22.7747 19.307 21.5195L13.5664 15.1307V23.8987Z" fill="#D80027"/>
<path d="M21.5209 19.3067L14.2143 12.0001L14.2143 12L21.5209 4.69333C21.2058 4.28383 20.8611 3.88989 20.486 3.5147C20.1109 3.13961 19.7169 2.79484 19.3074 2.4798L12.0007 9.78644H12.0007L4.69405 2.4798C4.28455 2.79489 3.89056 3.13956 3.51537 3.5147C3.14028 3.88989 2.79552 4.28383 2.48047 4.69338L9.78711 12L9.78716 12L2.48052 19.3067C2.79561 19.7162 3.14033 20.1101 3.51542 20.4853C3.89056 20.8604 4.28455 21.2052 4.69409 21.5202L12.0007 14.2136L19.3074 21.5202C19.7168 21.2051 20.1108 20.8604 20.486 20.4853C20.8611 20.1101 21.2058 19.7162 21.5209 19.3067V19.3067Z" fill="#496E2D"/>
<path d="M13.5662 23.8982V13.5652V13.5651H23.8994C23.9662 13.0527 24.001 12.5303 24.001 11.9998C24.001 11.4694 23.9661 10.947 23.8994 10.4347H13.5663L13.5662 10.4346V0.101442C13.0539 0.0347388 12.5316 -0.000183105 12.001 -0.000183105C11.4705 -0.00013623 10.9481 0.0347388 10.4358 0.101442L10.4358 10.4345V10.4346H0.102602C0.0358516 10.947 0.000976562 11.4693 0.000976562 11.9998C0.00102344 12.5304 0.0358516 13.0527 0.102602 13.565H10.4357L10.4358 23.8982C10.9482 23.9649 11.4704 23.9998 12.001 23.9998C12.5316 23.9998 13.0539 23.9649 13.5662 23.8982V23.8982Z" fill="#F0F0F0"/>
</g>
<defs>
<clipPath id="clip0_458_3152">
<rect width="24" height="24" fill="white"/>
</clipPath>
</defs>
</svg>
