<svg width="24" height="24" viewBox="0 0 24 24" fill="none" xmlns="http://www.w3.org/2000/svg">
<g clip-path="url(#clip0_458_3237)">
<path d="M12 24.0002C18.6274 24.0002 24 18.6277 24 12.0002C24 5.37283 18.6274 0.000244141 12 0.000244141C5.37258 0.000244141 0 5.37283 0 12.0002C0 18.6277 5.37258 24.0002 12 24.0002Z" fill="#F0F0F0"/>
<path d="M15.8985 8.86968H14.3285C14.3415 9.04222 14.3488 9.21632 14.3488 9.39139C14.3488 10.5522 14.0587 11.6773 13.5529 12.4783C13.3968 12.7253 13.1346 13.0741 12.7836 13.3094V8.86963H11.2184V13.3094C10.8674 13.0741 10.6052 12.7253 10.4491 12.4783C9.94325 11.6773 9.65314 10.5522 9.65314 9.39139C9.65314 9.21632 9.66055 9.04218 9.67348 8.86968H8.10345C8.09338 9.04138 8.08789 9.21529 8.08789 9.39139C8.08789 12.6096 9.8067 15.1305 12.0009 15.1305C14.1951 15.1305 15.914 12.6096 15.914 9.39139C15.914 9.21529 15.9086 9.04138 15.8985 8.86968V8.86968Z" fill="#D80027"/>
<path d="M4.95818 5.73914H6.52338V6.78262H8.08859V5.73914H9.65379V6.78262H11.219V5.73914H12.7842V6.78262H14.3494V5.73914H15.9146V6.78262H17.4798V5.73914H19.045V6.78262H22.8108C20.8699 2.76867 16.7591 0 12.0017 0C7.24418 0 3.13338 2.76867 1.19238 6.78262H4.95818V5.73914Z" fill="#6DA544"/>
<path d="M19.0451 17.2175V18.261H17.4799V17.2175H15.9147V18.261H14.3495V17.2175H12.7843V18.261H11.2191V17.2175H9.65393V18.261H8.08873V17.2175H6.52338V18.261H4.95818V17.2175H1.19238C3.13338 21.2315 7.24413 24.0002 12.0017 24.0002C16.7592 24.0002 20.8699 21.2315 22.8109 17.2175H19.0451Z" fill="#D80027"/>
</g>
<defs>
<clipPath id="clip0_458_3237">
<rect width="24" height="24" fill="white"/>
</clipPath>
</defs>
</svg>
