<svg width="25" height="25" viewBox="0 0 25 25" fill="none" xmlns="http://www.w3.org/2000/svg">
<g clip-path="url(#clip0_457_805)">
<path d="M12.0081 24.0143C18.6394 24.0143 24.0152 18.6385 24.0152 12.0072C24.0152 5.37588 18.6394 0.00012207 12.0081 0.00012207C5.37673 0.00012207 0.000976562 5.37588 0.000976562 12.0072C0.000976562 18.6385 5.37673 24.0143 12.0081 24.0143Z" fill="#F0F0F0"/>
<path d="M23.9125 10.4411H9.39691H9.39686V0.285522C8.28724 0.531574 7.23526 0.930388 6.26456 1.46006V10.441V10.441H0.101638C0.0348018 10.9537 0 11.4764 0 12.0072C0 12.538 0.0348018 13.0607 0.101638 13.5733H6.26451H6.26456V22.5543C7.23526 23.0839 8.28724 23.4828 9.39686 23.7289V13.5735V13.5734H23.9125C23.9793 13.0607 24.0142 12.538 24.0142 12.0072C24.0142 11.4764 23.9793 10.9537 23.9125 10.4411Z" fill="#0052B4"/>
</g>
<defs>
<clipPath id="clip0_457_805">
<rect width="24.0142" height="24.0142" fill="white"/>
</clipPath>
</defs>
</svg>
