<svg width="25" height="25" viewBox="0 0 25 25" fill="none" xmlns="http://www.w3.org/2000/svg">
<g clip-path="url(#clip0_457_808)">
<path d="M12.0071 24.0144C18.6384 24.0144 24.0142 18.6387 24.0142 12.0073C24.0142 5.376 18.6384 0.000244141 12.0071 0.000244141C5.37576 0.000244141 0 5.376 0 12.0073C0 18.6387 5.37576 24.0144 12.0071 24.0144Z" fill="#F0F0F0"/>
<path d="M24.0134 12.0071C24.0134 6.84446 20.7549 2.44334 16.1826 0.746826V23.2674C20.7549 21.5708 24.0134 17.1697 24.0134 12.0071Z" fill="#D80027"/>
<path d="M0 12.0071C0 17.1697 3.25847 21.5708 7.83073 23.2673V0.746826C3.25847 2.44334 0 6.84446 0 12.0071Z" fill="#0052B4"/>
</g>
<defs>
<clipPath id="clip0_457_808">
<rect width="24.0142" height="24.0142" fill="white"/>
</clipPath>
</defs>
</svg>
