<svg width="24" height="24" viewBox="0 0 24 24" fill="none" xmlns="http://www.w3.org/2000/svg">
<g clip-path="url(#clip0_458_3239)">
<path d="M12 23.9999C18.6274 23.9999 24 18.6273 24 11.9999C24 5.37246 18.6274 -0.00012207 12 -0.00012207C5.37258 -0.00012207 0 5.37246 0 11.9999C0 18.6273 5.37258 23.9999 12 23.9999Z" fill="#F0F0F0"/>
<path d="M23.9999 11.9998C23.9999 6.84025 20.7434 2.44168 16.1738 0.746216V23.2535C20.7434 21.5579 23.9999 17.1594 23.9999 11.9998V11.9998Z" fill="#FF9811"/>
<path d="M0 11.9998C0 17.1594 3.2565 21.5579 7.82611 23.2534V0.746216C3.2565 2.44168 0 6.84025 0 11.9998V11.9998Z" fill="#6DA544"/>
</g>
<defs>
<clipPath id="clip0_458_3239">
<rect width="24" height="24" fill="white"/>
</clipPath>
</defs>
</svg>
