<svg width="24" height="24" viewBox="0 0 24 24" fill="none" xmlns="http://www.w3.org/2000/svg">
<g clip-path="url(#clip0_458_3307)">
<path d="M12 24C18.6274 24 24 18.6274 24 12C24 5.37258 18.6274 0 12 0C5.37258 0 0 5.37258 0 12C0 18.6274 5.37258 24 12 24Z" fill="#F0F0F0"/>
<path d="M11.9987 -6.10352e-05C7.2412 -6.10352e-05 3.13045 2.76861 1.18945 6.78256H22.808C20.867 2.76861 16.7562 -6.10352e-05 11.9987 -6.10352e-05V-6.10352e-05Z" fill="#D80027"/>
<path d="M11.9987 23.9999C16.7562 23.9999 20.867 21.2312 22.808 17.2172H1.18945C3.13045 21.2312 7.2412 23.9999 11.9987 23.9999Z" fill="#0052B4"/>
<path d="M14.9524 8.52698L13.8456 9.63374C14.3177 10.1058 14.6097 10.758 14.6097 11.4784C14.6097 12.9191 13.4417 14.0871 12.001 14.0871C10.5603 14.0871 9.39235 12.9191 9.39235 11.4784C9.39235 10.758 9.68438 10.1058 10.1565 9.63374L9.0497 8.52698C8.29431 9.28223 7.82715 10.3257 7.82715 11.4784C7.82715 13.7836 9.69587 15.6523 12.001 15.6523C14.3062 15.6523 16.1749 13.7835 16.1749 11.4784C16.1749 10.3257 15.7077 9.28223 14.9524 8.52698V8.52698Z" fill="#6DA544"/>
<path d="M12.0003 9.91278L12.3888 11.1086H13.6461L12.6289 11.8475L13.0175 13.0432L12.0003 12.3042L10.9831 13.0432L11.3716 11.8475L10.3545 11.1086H11.6117L12.0003 9.91278Z" fill="#FFDA44"/>
</g>
<defs>
<clipPath id="clip0_458_3307">
<rect width="24" height="24" fill="white"/>
</clipPath>
</defs>
</svg>
