<svg width="24" height="24" viewBox="0 0 24 24" fill="none" xmlns="http://www.w3.org/2000/svg">
<g clip-path="url(#clip0_458_3241)">
<path d="M12 23.9998C18.6274 23.9998 24 18.6272 24 11.9998C24 5.37234 18.6274 -0.000244141 12 -0.000244141C5.37258 -0.000244141 0 5.37234 0 11.9998C0 18.6272 5.37258 23.9998 12 23.9998Z" fill="#F0F0F0"/>
<path d="M16.5154 9.39116H13.503L11.9969 6.78247L10.4909 9.39116H7.47852L8.9848 11.9998L7.47852 14.6085H10.4909L11.9969 17.2172L13.503 14.6085H16.5154L15.0091 11.9998L16.5154 9.39116ZM13.8473 11.9998L12.9222 13.6024H11.0718L10.1465 11.9998L11.0718 10.3973H12.9222L13.8473 11.9998ZM11.9969 8.79467L12.3413 9.39111H11.6527L11.9969 8.79467ZM9.22128 10.3973H9.90997L9.56563 10.9937L9.22128 10.3973ZM9.22128 13.6024L9.56567 13.006L9.91002 13.6024H9.22128ZM11.9969 15.205L11.6526 14.6085H12.3413L11.9969 15.205ZM14.7726 13.6024H14.0839L14.4283 13.006L14.7726 13.6024ZM14.0839 10.3973H14.7726L14.4283 10.9937L14.0839 10.3973Z" fill="#0052B4"/>
<path d="M19.4683 2.60864H4.52863C3.43348 3.48089 2.4943 4.54036 1.75977 5.7391H22.2372C21.5026 4.54041 20.5634 3.48089 19.4683 2.60864V2.60864Z" fill="#0052B4"/>
<path d="M4.52862 21.3911H19.4683C20.5634 20.5188 21.5026 19.4594 22.2372 18.2606H1.75977C2.49434 19.4593 3.43353 20.5188 4.52862 21.3911V21.3911Z" fill="#0052B4"/>
</g>
<defs>
<clipPath id="clip0_458_3241">
<rect width="24" height="24" fill="white"/>
</clipPath>
</defs>
</svg>
