<svg width="24" height="24" viewBox="0 0 24 24" fill="none" xmlns="http://www.w3.org/2000/svg">
<g clip-path="url(#clip0_458_3235)">
<path d="M12 24.0002C18.6274 24.0002 24 18.6277 24 12.0002C24 5.37283 18.6274 0.000244141 12 0.000244141C5.37258 0.000244141 0 5.37283 0 12.0002C0 18.6277 5.37258 24.0002 12 24.0002Z" fill="#F0F0F0"/>
<path d="M11.9997 0C7.24218 0 3.13143 2.76867 1.19043 6.78262H22.8089C20.868 2.76867 16.7572 0 11.9997 0V0Z" fill="#FF9811"/>
<path d="M11.9997 23.9999C16.7572 23.9999 20.868 21.2312 22.809 17.2173H1.19043C3.13143 21.2312 7.24218 23.9999 11.9997 23.9999Z" fill="#6DA544"/>
<path d="M11.9991 16.1737C14.3043 16.1737 16.173 14.305 16.173 11.9998C16.173 9.69464 14.3043 7.82593 11.9991 7.82593C9.69391 7.82593 7.8252 9.69464 7.8252 11.9998C7.8252 14.305 9.69391 16.1737 11.9991 16.1737Z" fill="#0052B4"/>
<path d="M12.0022 14.6085C13.443 14.6085 14.6109 13.4405 14.6109 11.9998C14.6109 10.5591 13.443 9.39111 12.0022 9.39111C10.5615 9.39111 9.39355 10.5591 9.39355 11.9998C9.39355 13.4405 10.5615 14.6085 12.0022 14.6085Z" fill="#F0F0F0"/>
<path d="M12.0017 8.78076L12.8065 10.606L14.7895 10.3903L13.6112 11.9999L14.7895 13.6094L12.8065 13.3937L12.0017 15.2189L11.1969 13.3937L9.21387 13.6094L10.3921 11.9999L9.21387 10.3903L11.1969 10.606L12.0017 8.78076Z" fill="#0052B4"/>
</g>
<defs>
<clipPath id="clip0_458_3235">
<rect width="24" height="24" fill="white"/>
</clipPath>
</defs>
</svg>
