<svg width="25" height="25" viewBox="0 0 25 25" fill="none" xmlns="http://www.w3.org/2000/svg">
<g clip-path="url(#clip0_458_3188)">
<path d="M24.0142 12.0069C24.0142 10.5382 23.75 9.13125 23.2673 7.83055L12.0071 7.30847L0.746832 7.8305C0.264203 9.13125 0 10.5382 0 12.0069C0 13.4756 0.264203 14.8826 0.746832 16.1833L12.0071 16.7053L23.2673 16.1833C23.75 14.8826 24.0142 13.4756 24.0142 12.0069Z" fill="#F0F0F0"/>
<path d="M12.0064 24.0141C17.169 24.0141 21.5701 20.7557 23.2666 16.1833H0.746094C2.44261 20.7557 6.84373 24.0141 12.0064 24.0141Z" fill="#0052B4"/>
<path d="M0.746094 7.83073H23.2667C21.5701 3.25842 17.169 0 12.0064 0C6.84373 0 2.44261 3.25842 0.746094 7.83073Z" fill="#D80027"/>
<path d="M15.139 8.35274H13.0508L13.3988 5.74246L14.7909 4.69836L16.183 5.74246V7.83067L15.139 8.35274Z" fill="#338AF3"/>
<path d="M8.87218 8.35274H10.9604L10.6123 5.74246L9.2202 4.69836L7.82812 5.74246V7.83067L8.87218 8.35274Z" fill="#338AF3"/>
<path d="M13.3986 8.35262H10.6143V5.74234L12.0064 4.69824L13.3986 5.74234V8.35262Z" fill="#0052B4"/>
<path d="M7.82812 7.83069V13.5732C7.82812 14.9405 8.48861 16.1565 9.50734 16.9188L10.2382 16.736L11.1605 17.6638C11.4333 17.72 11.7155 17.7496 12.0045 17.7496C12.292 17.7496 12.5728 17.7204 12.8441 17.6647L13.897 16.7881L14.5016 16.9171C15.5199 16.1549 16.1809 14.9402 16.1809 13.5732V7.83069H7.82812Z" fill="#F0F0F0"/>
<path d="M7.82812 7.83069H9.49866V9.50122H7.82812V7.83069Z" fill="#D80027"/>
<path d="M11.1709 7.83069H12.8414V9.50122H11.1709V7.83069Z" fill="#D80027"/>
<path d="M14.5127 7.83069H16.1832V9.50122H14.5127V7.83069Z" fill="#D80027"/>
<path d="M9.50195 9.50122H11.1725V11.1718H9.50195V9.50122Z" fill="#D80027"/>
<path d="M12.8438 9.50122H14.5143V11.1718H12.8438V9.50122Z" fill="#D80027"/>
<path d="M7.82812 11.1711H9.49866V12.8417H7.82812V11.1711Z" fill="#D80027"/>
<path d="M9.50195 12.8417H11.1725V14.5122H9.50195V12.8417Z" fill="#D80027"/>
<path d="M11.1709 11.1711H12.8414V12.8417H11.1709V11.1711Z" fill="#D80027"/>
<path d="M14.5127 11.1711H16.1832V12.8417H14.5127V11.1711Z" fill="#D80027"/>
<path d="M12.8438 12.8417H14.5143V14.5122H12.8438V12.8417Z" fill="#D80027"/>
<path d="M11.1709 14.5123H12.8414V16.1829H11.1709V14.5123Z" fill="#D80027"/>
<path d="M9.50025 14.5125H7.9375C8.08083 15.1334 8.36263 15.7017 8.74901 16.183H9.50025V14.5125Z" fill="#D80027"/>
<path d="M14.5127 16.1831H15.2639C15.6504 15.7018 15.9321 15.1335 16.0754 14.5126H14.5127V16.1831Z" fill="#D80027"/>
<path d="M9.50195 16.183V16.9119C9.98782 17.2775 10.5556 17.5396 11.1725 17.6654V16.183H9.50195Z" fill="#D80027"/>
<path d="M12.8438 16.183V17.6654C13.4607 17.5397 14.0284 17.2775 14.5143 16.9119V16.183H12.8438Z" fill="#D80027"/>
</g>
<defs>
<clipPath id="clip0_458_3188">
<rect width="24.0142" height="24.0142" fill="white"/>
</clipPath>
</defs>
</svg>
