<svg width="24" height="24" viewBox="0 0 24 24" fill="none" xmlns="http://www.w3.org/2000/svg">
<g clip-path="url(#clip0_458_3229)">
<path d="M24 12.0001C24 18.6275 18.6274 24.0001 12 24.0001C5.37262 24.0001 0 18.6275 0 12.0001C0 5.37275 12 0.00012207 12 0.00012207C12 0.00012207 24 5.37275 24 12.0001Z" fill="#A2001D"/>
<path d="M0 12.0001C0 5.37275 5.37262 0.00012207 12 0.00012207C18.6274 0.00012207 24 5.37275 24 12.0001" fill="#0052B4"/>
<path d="M16.172 15.1303L11.9981 14.6085L7.82422 15.1303V8.86938H16.172V15.1303Z" fill="#F0F0F0"/>
<path d="M11.9991 14.6086C13.1517 14.6086 14.086 13.6743 14.086 12.5217C14.086 11.3691 13.1517 10.4347 11.9991 10.4347C10.8465 10.4347 9.91211 11.3691 9.91211 12.5217C9.91211 13.6743 10.8465 14.6086 11.9991 14.6086Z" fill="#0052B4"/>
<path d="M11.9986 13.5654C12.5749 13.5654 13.042 13.0982 13.042 12.5219C13.042 11.9456 12.5749 11.4784 11.9986 11.4784C11.4223 11.4784 10.9551 11.9456 10.9551 12.5219C10.9551 13.0982 11.4223 13.5654 11.9986 13.5654Z" fill="#A2001D"/>
<path d="M10.4326 9.91296H13.563L11.9978 11.4782L10.4326 9.91296Z" fill="#6DA544"/>
<path d="M11.4775 10.9565H12.521V14.087H11.4775V10.9565Z" fill="#FFDA44"/>
<path d="M13.6677 13.7738H10.3285L7.82422 15.1304H16.172L13.6677 13.7738Z" fill="#6DA544"/>
</g>
<defs>
<clipPath id="clip0_458_3229">
<rect width="24" height="24" fill="white"/>
</clipPath>
</defs>
</svg>
