<svg width="24" height="24" viewBox="0 0 24 24" fill="none" xmlns="http://www.w3.org/2000/svg">
<g clip-path="url(#clip0_458_3141)">
<path d="M24 12.0001C24 10.5323 23.736 9.12615 23.2536 7.82621L12 7.30444L0.746391 7.82616C0.264047 9.12615 0 10.5323 0 12.0001C0 13.4679 0.264047 14.8741 0.746391 16.174L12 16.6958L23.2536 16.174C23.736 14.8741 24 13.4679 24 12.0001Z" fill="#0052B4"/>
<path d="M11.9987 24.0003C17.1583 24.0003 21.5568 20.7438 23.2523 16.1742H0.745117C2.44063 20.7438 6.83915 24.0003 11.9987 24.0003Z" fill="#FF9811"/>
<path d="M0.745117 7.82623H23.2524C21.5568 3.25662 17.1583 0.00012207 11.9987 0.00012207C6.83915 0.00012207 2.44063 3.25662 0.745117 7.82623V7.82623Z" fill="#D80027"/>
</g>
<defs>
<clipPath id="clip0_458_3141">
<rect width="24" height="24" fill="white"/>
</clipPath>
</defs>
</svg>
