<svg width="24" height="24" viewBox="0 0 24 24" fill="none" xmlns="http://www.w3.org/2000/svg">
<g clip-path="url(#clip0_458_3292)">
<path d="M12 23.9999C18.6274 23.9999 24 18.6274 24 11.9999C24 5.37252 18.6274 -6.10352e-05 12 -6.10352e-05C5.37258 -6.10352e-05 0 5.37252 0 11.9999C0 18.6274 5.37258 23.9999 12 23.9999Z" fill="#F0F0F0"/>
<path d="M0 11.9995C0 17.1592 3.2565 21.5576 7.82611 23.2532V0.745972C3.2565 2.44144 0 6.84 0 11.9995V11.9995Z" fill="#6DA544"/>
<path d="M24.0009 11.9997C24.0009 6.84012 20.7444 2.44156 16.1748 0.746094V23.2534C20.7444 21.5577 24.0009 17.1593 24.0009 11.9997V11.9997Z" fill="#6DA544"/>
</g>
<defs>
<clipPath id="clip0_458_3292">
<rect width="24" height="24" fill="white"/>
</clipPath>
</defs>
</svg>
