<svg width="24" height="24" viewBox="0 0 24 24" fill="none" xmlns="http://www.w3.org/2000/svg">
<g clip-path="url(#clip0_458_3234)">
<path d="M12 24.0002C18.6274 24.0002 24 18.6277 24 12.0002C24 5.37283 18.6274 0.000244141 12 0.000244141C5.37258 0.000244141 0 5.37283 0 12.0002C0 18.6277 5.37258 24.0002 12 24.0002Z" fill="#F0F0F0"/>
<path d="M0.413086 15.1306C1.1074 17.7068 2.63763 19.9397 4.69535 21.5207V15.1306H0.413086Z" fill="#0052B4"/>
<path d="M10.9561 23.9545C11.3 23.9841 11.6479 24.0002 11.9995 24.0002C17.5439 24.0002 22.2092 20.2398 23.5862 15.1306H10.9561V23.9545Z" fill="#0052B4"/>
<path d="M23.5862 8.86967C22.2092 3.76048 17.5439 0.00012207 11.9995 0.00012207C11.6479 0.00012207 11.3 0.0161533 10.9561 0.0457783V8.86967H23.5862Z" fill="#0052B4"/>
<path d="M4.69535 2.47961C2.63763 4.06071 1.1074 6.2935 0.413086 8.86971H4.69535V2.47961Z" fill="#0052B4"/>
<path d="M23.8984 10.4348H9.39136H9.39131V0.285278C8.28234 0.531185 7.23098 0.929763 6.26086 1.45912V10.4348H0.101578C0.0347813 10.9472 0 11.4696 0 12C0 12.5305 0.0347813 13.0529 0.101578 13.5652H6.26081H6.26086V22.5409C7.23098 23.0702 8.28234 23.4689 9.39131 23.7148V13.5654V13.5653H23.8984C23.9651 13.0529 24 12.5305 24 12C24 11.4696 23.9651 10.9472 23.8984 10.4348V10.4348Z" fill="#D80027"/>
</g>
<defs>
<clipPath id="clip0_458_3234">
<rect width="24" height="24" fill="white"/>
</clipPath>
</defs>
</svg>
