<svg width="25" height="25" viewBox="0 0 25 25" fill="none" xmlns="http://www.w3.org/2000/svg">
<g clip-path="url(#clip0_457_1018)">
<path d="M12.0071 24.0141C18.6384 24.0141 24.0142 18.6383 24.0142 12.007C24.0142 5.37564 18.6384 -0.00012207 12.0071 -0.00012207C5.37576 -0.00012207 0 5.37564 0 12.007C0 18.6383 5.37576 24.0141 12.0071 24.0141Z" fill="#F0F0F0"/>
<path d="M24.0134 12.007C24.0134 6.84434 20.7549 2.44322 16.1826 0.746704V23.2673C20.7549 21.5707 24.0134 17.1696 24.0134 12.007Z" fill="#D80027"/>
<path d="M0 12.007C0 17.1696 3.25842 21.5707 7.83073 23.2672V0.746704C3.25842 2.44322 0 6.84434 0 12.007Z" fill="#6DA544"/>
</g>
<defs>
<clipPath id="clip0_457_1018">
<rect width="24.0142" height="24.0142" fill="white"/>
</clipPath>
</defs>
</svg>
