<svg width="24" height="24" viewBox="0 0 24 24" fill="none" xmlns="http://www.w3.org/2000/svg">
<g clip-path="url(#clip0_458_3216)">
<path d="M12 24.0001C18.6274 24.0001 24 18.6275 24 12.0001C24 5.3727 18.6274 0.00012207 12 0.00012207C5.37258 0.00012207 0 5.3727 0 12.0001C0 18.6275 5.37258 24.0001 12 24.0001Z" fill="#F0F0F0"/>
<path d="M23.8984 10.4353H13.5653H13.5652V0.102066C13.0529 0.0353633 12.5305 0.000488281 12 0.000488281C11.4695 0.000488281 10.9471 0.0353633 10.4348 0.102066V10.4352V10.4352H0.101578C0.034875 10.9476 0 11.47 0 12.0005C0 12.5311 0.034875 13.0533 0.101578 13.5657H10.4347H10.4348V23.8989C10.9471 23.9656 11.4695 24.0005 12 24.0005C12.5305 24.0005 13.0529 23.9657 13.5652 23.8989V13.5658V13.5657H23.8984C23.9651 13.0533 24 12.5311 24 12.0005C24 11.47 23.9651 10.9476 23.8984 10.4353V10.4353Z" fill="#D80027"/>
<path d="M7.30428 5.73957V4.17432H5.73908V5.73957H4.17383V7.30477H5.73908V8.86997H7.30428V7.30477H8.86948V5.73957H7.30428Z" fill="#D80027"/>
<path d="M18.2603 5.73957V4.17432H16.6951V5.73957H15.1299V7.30477H16.6951V8.86997H18.2603V7.30477H19.8255V5.73957H18.2603Z" fill="#D80027"/>
<path d="M7.30428 16.6961V15.1309H5.73908V16.6961H4.17383V18.2613H5.73908V19.8265H7.30428V18.2613H8.86948V16.6961H7.30428Z" fill="#D80027"/>
<path d="M18.2603 16.6961V15.1309H16.6951V16.6961H15.1299V18.2613H16.6951V19.8265H18.2603V18.2613H19.8255V16.6961H18.2603Z" fill="#D80027"/>
</g>
<defs>
<clipPath id="clip0_458_3216">
<rect width="24" height="24" fill="white"/>
</clipPath>
</defs>
</svg>
