<svg width="24" height="24" viewBox="0 0 24 24" fill="none" xmlns="http://www.w3.org/2000/svg">
<g clip-path="url(#clip0_458_3247)">
<path d="M12 24.0004C18.6274 24.0004 24 18.6278 24 12.0004C24 5.37295 18.6274 0.000366211 12 0.000366211C5.37258 0.000366211 0 5.37295 0 12.0004C0 18.6278 5.37258 24.0004 12 24.0004Z" fill="#338AF3"/>
<path d="M18.7821 12.1307H5.2168C5.2168 13.0673 6.03247 13.8264 6.96889 13.8264H6.91245C6.91245 14.7629 7.67159 15.5221 8.60811 15.5221C8.60811 16.4586 9.36725 17.2177 10.3038 17.2177H13.6951C14.6316 17.2177 15.3907 16.4586 15.3907 15.5221C16.3273 15.5221 17.0864 14.7629 17.0864 13.8264H17.03C17.9663 13.8264 18.7821 13.0673 18.7821 12.1307V12.1307Z" fill="#FFDA44"/>
<path d="M16.696 9.91333C16.696 12.5066 14.5937 14.609 12.0003 14.609C9.40698 14.609 7.30469 12.5066 7.30469 9.91333" fill="#338AF3"/>
<path d="M15.5873 9.9136L14.1218 10.603L14.9022 12.0224L13.3108 11.7179L13.1092 13.3255L12.0007 12.1431L10.8922 13.3255L10.6906 11.7179L9.09919 12.0223L9.87956 10.6029L8.41406 9.9136L9.87961 9.22426L9.09919 7.80493L10.6905 8.10933L10.8922 6.50171L12.0007 7.68413L13.1092 6.50171L13.3108 8.10933L14.9023 7.80493L14.1218 9.2243L15.5873 9.9136Z" fill="#FFDA44"/>
</g>
<defs>
<clipPath id="clip0_458_3247">
<rect width="24" height="24" fill="white"/>
</clipPath>
</defs>
</svg>
