<svg width="25" height="25" viewBox="0 0 25 25" fill="none" xmlns="http://www.w3.org/2000/svg">
<g clip-path="url(#clip0_457_1769)">
<path d="M12.0071 24.0144C18.6384 24.0144 24.0142 18.6387 24.0142 12.0073C24.0142 5.376 18.6384 0.000244141 12.0071 0.000244141C5.37576 0.000244141 0 5.376 0 12.0073C0 18.6387 5.37576 24.0144 12.0071 24.0144Z" fill="#F0F0F0"/>
<path d="M16.1847 12.0072C16.1847 13.0513 14.3149 15.6615 12.0084 15.6615C9.70185 15.6615 7.83203 13.0513 7.83203 12.0072C7.83203 9.70059 9.70185 7.83081 12.0084 7.83081C14.3149 7.83081 16.1847 9.70059 16.1847 12.0072Z" fill="#D80027"/>
<path d="M16.1847 12.0072C16.1847 14.3138 14.3149 16.1836 12.0084 16.1836C9.70185 16.1836 7.83203 14.3138 7.83203 12.0072" fill="#0052B4"/>
<path d="M16.4336 15.6987L17.5408 14.5915L18.279 15.3297L17.1718 16.4369L16.4336 15.6987Z" fill="black"/>
<path d="M14.5869 17.5443L15.6942 16.4371L16.4323 17.1752L15.3251 18.2825L14.5869 17.5443Z" fill="black"/>
<path d="M18.6475 17.9132L19.7547 16.806L20.4929 17.5441L19.3856 18.6514L18.6475 17.9132Z" fill="black"/>
<path d="M16.8027 19.7592L17.91 18.6519L18.6482 19.3901L17.5409 20.4973L16.8027 19.7592Z" fill="black"/>
<path d="M17.5391 16.8062L18.6463 15.6989L19.3845 16.4371L18.2772 17.5443L17.5391 16.8062Z" fill="black"/>
<path d="M15.6953 18.6515L16.8026 17.5442L17.5407 18.2824L16.4335 19.3897L15.6953 18.6515Z" fill="black"/>
<path d="M18.6514 8.3175L15.6987 5.36482L16.4369 4.62664L19.3895 7.57933L18.6514 8.3175Z" fill="black"/>
<path d="M15.7002 7.57983L14.5929 6.47258L15.3311 5.73444L16.4383 6.84169L15.7002 7.57983Z" fill="black"/>
<path d="M17.5439 9.42566L16.4367 8.31841L17.1748 7.58026L18.2821 8.68751L17.5439 9.42566Z" fill="black"/>
<path d="M17.9131 5.36499L16.8058 4.25774L17.544 3.51956L18.6513 4.62681L17.9131 5.36499Z" fill="black"/>
<path d="M19.7598 7.21106L18.6525 6.10381L19.3907 5.36563L20.4979 6.47288L19.7598 7.21106Z" fill="black"/>
<path d="M4.25586 16.804L7.20854 19.7566L6.47036 20.4948L3.51768 17.5421L4.25586 16.804Z" fill="black"/>
<path d="M7.20898 17.5416L8.31624 18.6489L7.57809 19.387L6.47084 18.2798L7.20898 17.5416Z" fill="black"/>
<path d="M5.36328 15.6967L6.47053 16.8039L5.73235 17.5421L4.6251 16.4348L5.36328 15.6967Z" fill="black"/>
<path d="M6.47168 14.589L9.42436 17.5417L8.68619 18.2799L5.7335 15.3272L6.47168 14.589Z" fill="black"/>
<path d="M7.20898 4.25549L4.2563 7.20818L3.51812 6.47L6.47081 3.51731L7.20898 4.25549Z" fill="black"/>
<path d="M8.31543 5.36243L5.36275 8.31511L4.62457 7.57693L7.57725 4.62425L8.31543 5.36243Z" fill="black"/>
<path d="M9.42285 6.47058L6.47017 9.42327L5.73202 8.68512L8.6847 5.73243L9.42285 6.47058Z" fill="black"/>
</g>
<defs>
<clipPath id="clip0_457_1769">
<rect width="24.0142" height="24.0142" fill="white"/>
</clipPath>
</defs>
</svg>
