<svg width="24" height="24" viewBox="0 0 24 24" fill="none" xmlns="http://www.w3.org/2000/svg">
<g clip-path="url(#clip0_458_3252)">
<path d="M12 24.0002C18.6274 24.0002 24 18.6277 24 12.0002C24 5.37283 18.6274 0.000244141 12 0.000244141C5.37258 0.000244141 0 5.37283 0 12.0002C0 18.6277 5.37258 24.0002 12 24.0002Z" fill="#D80027"/>
<path d="M17.8681 12.0001L15.4702 13.128L16.7471 15.4505L14.1431 14.9523L13.8133 17.5827L11.9994 15.6482L10.1857 17.5827L9.85578 14.9523L7.25197 15.4504L8.52884 13.1279L6.13086 12.0001L8.52884 10.8722L7.25197 8.54968L9.85569 9.04796L10.1858 6.41748L11.9994 8.35206L13.8133 6.41748L14.1431 9.04796L16.7472 8.54968L15.4702 10.8724L17.8681 12.0001Z" fill="#FFDA44"/>
<path d="M11.9979 15.6525C14.0149 15.6525 15.65 14.0174 15.65 12.0003C15.65 9.98328 14.0149 8.34814 11.9979 8.34814C9.98084 8.34814 8.3457 9.98328 8.3457 12.0003C8.3457 14.0174 9.98084 15.6525 11.9979 15.6525Z" fill="#D80027"/>
<path d="M10.1727 12C10.0847 12 9.99784 12.0045 9.91211 12.013C9.91525 12.5189 10.0983 12.9818 10.4005 13.3415C10.5618 12.9076 10.8025 12.5119 11.1061 12.1733C10.8161 12.0618 10.5016 12 10.1727 12Z" fill="#FFDA44"/>
<path d="M11.2988 13.9657C11.5182 14.0441 11.7544 14.0871 12.0008 14.0871C12.2472 14.0871 12.4834 14.0441 12.7027 13.9657C12.5832 13.4964 12.3363 13.0774 12.0008 12.7482C11.6653 13.0774 11.4184 13.4964 11.2988 13.9657Z" fill="#FFDA44"/>
<path d="M13.8069 10.9569C13.4461 10.3332 12.7721 9.91309 11.9996 9.91309C11.2271 9.91309 10.5532 10.3331 10.1924 10.9569C10.8502 10.9602 11.4671 11.1391 11.9996 11.448C12.5322 11.1391 13.149 10.9602 13.8069 10.9569Z" fill="#FFDA44"/>
<path d="M12.8926 12.1733C13.1962 12.5119 13.4369 12.9075 13.5982 13.3415C13.9004 12.9818 14.0834 12.5189 14.0866 12.013C14.0008 12.0045 13.9139 12 13.826 12C13.4972 12 13.1826 12.0617 12.8926 12.1733V12.1733Z" fill="#FFDA44"/>
</g>
<defs>
<clipPath id="clip0_458_3252">
<rect width="24" height="24" fill="white"/>
</clipPath>
</defs>
</svg>
