<svg width="24" height="24" viewBox="0 0 24 24" fill="none" xmlns="http://www.w3.org/2000/svg">
<g clip-path="url(#clip0_458_3376)">
<path d="M11.9998 0.000366211C18.6271 0.000366211 23.9998 5.37299 23.9998 12.0004C23.9998 18.6277 18.6271 24.0004 11.9998 24.0004C11.9998 23.4786 10.4346 12.0004 10.4346 12.0004L11.9998 0.000366211Z" fill="#F0F0F0"/>
<path d="M12 24.0004C5.37262 24.0004 0 18.6277 0 12.0004C0 5.37299 5.37262 0.000366211 12 0.000366211" fill="#FFDA44"/>
<path d="M16.5942 10.4424L18.8494 13.4258C18.4941 13.9638 18.496 14.6887 18.9069 15.2323C19.4282 15.9219 20.4098 16.0584 21.0994 15.5371C21.789 15.0158 21.9255 14.0342 21.4042 13.3447C20.9933 12.801 20.2964 12.6016 19.6818 12.7966L16.1671 8.14697L15.3347 8.77622L14.0859 9.72L15.3444 11.3848L16.5942 10.4424ZM19.8409 13.8722C20.0708 13.6984 20.398 13.744 20.5718 13.9738C20.7455 14.2036 20.7001 14.5309 20.4702 14.7047C20.2404 14.8784 19.9132 14.833 19.7394 14.6031C19.5656 14.3732 19.6111 14.046 19.8409 13.8722V13.8722Z" fill="#ACABB1"/>
<path d="M20.4633 11.3846L21.7218 9.71985L20.4731 8.77598L19.6407 8.14673L16.126 12.7964C15.5115 12.6013 14.8145 12.8009 14.4036 13.3444C13.8823 14.034 14.0188 15.0156 14.7084 15.5369C15.398 16.0581 16.3796 15.9217 16.9008 15.2321C17.3117 14.6885 17.3136 13.9636 16.9583 13.4256L19.2135 10.4422L20.4633 11.3846ZM16.0684 14.6029C15.8947 14.8328 15.5675 14.8783 15.3376 14.7045C15.1077 14.5307 15.0623 14.2035 15.236 13.9736C15.4098 13.7438 15.737 13.6983 15.9669 13.8721C16.1967 14.0459 16.2422 14.3731 16.0684 14.6029V14.6029Z" fill="#FFDA44"/>
</g>
<defs>
<clipPath id="clip0_458_3376">
<rect width="24" height="24" fill="white"/>
</clipPath>
</defs>
</svg>
