<svg width="24" height="24" viewBox="0 0 24 24" fill="none" xmlns="http://www.w3.org/2000/svg">
<g clip-path="url(#clip0_458_3261)">
<path d="M12 23.9996C18.6274 23.9996 24 18.6271 24 11.9996C24 5.37222 18.6274 -0.000366211 12 -0.000366211C5.37258 -0.000366211 0 5.37222 0 11.9996C0 18.6271 5.37258 23.9996 12 23.9996Z" fill="#F0F0F0"/>
<path d="M11.9997 -6.10352e-05C6.84012 -6.10352e-05 2.44161 3.25644 0.746094 7.82605H23.2534C21.5578 3.25644 17.1593 -6.10352e-05 11.9997 -6.10352e-05V-6.10352e-05Z" fill="#D80027"/>
<path d="M11.9997 24C17.1593 24 21.5578 20.7435 23.2533 16.1739H0.746094C2.44161 20.7435 6.84013 24 11.9997 24Z" fill="#338AF3"/>
</g>
<defs>
<clipPath id="clip0_458_3261">
<rect width="24" height="24" fill="white"/>
</clipPath>
</defs>
</svg>
