<svg width="24" height="24" viewBox="0 0 24 24" fill="none" xmlns="http://www.w3.org/2000/svg">
<g clip-path="url(#clip0_458_3193)">
<path d="M22.667 6.49781C22.1125 5.42348 21.3857 4.41511 20.4852 3.51455C19.5845 2.61394 18.5761 1.88714 17.5018 1.3327L9.04798 9.04861L1.33203 17.5025C1.88652 18.5768 2.61331 19.5852 3.51387 20.4858C4.41444 21.3863 5.42286 22.1131 6.49714 22.6676L14.951 14.9517L22.667 6.49781Z" fill="#FFDA44"/>
<path d="M3.51455 20.4858C4.01795 20.9892 4.55509 21.4382 5.11848 21.8335L21.8334 5.11854C21.4381 4.55515 20.9892 4.01801 20.4858 3.51462C19.9824 3.01122 19.4453 2.5623 18.8819 2.16705L2.16699 18.8819C2.5622 19.4452 3.01112 19.9825 3.51455 20.4858V20.4858Z" fill="#D80027"/>
<path d="M3.51441 3.51516C-0.271541 7.30112 -0.998338 12.987 1.33257 17.5031L17.5024 1.33337C12.9862 -0.997493 7.30032 -0.270602 3.51441 3.51516V3.51516Z" fill="#338AF3"/>
<path d="M20.486 20.4861C24.2719 16.7002 24.9986 11.0143 22.6679 6.49817L6.49805 22.6679C11.0142 24.9988 16.7001 24.272 20.486 20.4861V20.4861Z" fill="#338AF3"/>
<path d="M6.39352 3.65192L7.04105 5.6449H9.13655L7.44127 6.87659L8.0888 8.86953L6.39352 7.63779L4.69814 8.86953L5.34577 6.87659L3.65039 5.6449H5.74589L6.39352 3.65192Z" fill="#FFDA44"/>
</g>
<defs>
<clipPath id="clip0_458_3193">
<rect width="24" height="24" fill="white"/>
</clipPath>
</defs>
</svg>
