<svg width="25" height="25" viewBox="0 0 25 25" fill="none" xmlns="http://www.w3.org/2000/svg">
<g clip-path="url(#clip0_458_3260)">
<path d="M23.2673 16.1834C23.75 14.8827 24.0142 13.4758 24.0142 12.0071C24.0142 10.5384 23.75 9.13143 23.2673 7.83072L12.0071 6.78662L0.746832 7.83072C0.264156 9.13143 0 10.5384 0 12.0071C0 13.4758 0.264156 14.8827 0.746832 16.1834L12.0071 17.2275L23.2673 16.1834Z" fill="#6DA544"/>
<path d="M23.2647 7.83073C21.5681 3.25842 17.167 0 12.0044 0C6.84177 0 2.44066 3.25842 0.744141 7.83073H23.2647Z" fill="#FFDA44"/>
<path d="M12.0054 24.0142C17.168 24.0142 21.5691 20.7558 23.2656 16.1835H0.745117C2.44163 20.7558 6.84275 24.0142 12.0054 24.0142Z" fill="#D80027"/>
</g>
<defs>
<clipPath id="clip0_458_3260">
<rect width="24.0142" height="24.0142" fill="white"/>
</clipPath>
</defs>
</svg>
