<svg width="24" height="24" viewBox="0 0 24 24" fill="none" xmlns="http://www.w3.org/2000/svg">
<g clip-path="url(#clip0_458_3263)">
<path d="M12 23.9997C18.6274 23.9997 24 18.6271 24 11.9997C24 5.37228 18.6274 -0.000305176 12 -0.000305176C5.37258 -0.000305176 0 5.37228 0 11.9997C0 18.6271 5.37258 23.9997 12 23.9997Z" fill="#F0F0F0"/>
<path d="M7.8252 12V23.2536C9.12513 23.736 10.5312 24 11.9991 24C18.6265 24 23.9991 18.6274 23.9991 12C23.9991 5.37263 7.8252 12 7.8252 12Z" fill="#6DA544"/>
<path d="M11.9991 -6.10352e-05C10.5312 -6.10352e-05 9.12513 0.263986 7.8252 0.74633V11.9999H23.9991C23.9991 5.37256 18.6265 -6.10352e-05 11.9991 -6.10352e-05Z" fill="#D80027"/>
</g>
<defs>
<clipPath id="clip0_458_3263">
<rect width="24" height="24" fill="white"/>
</clipPath>
</defs>
</svg>
