<svg width="24" height="24" viewBox="0 0 24 24" fill="none" xmlns="http://www.w3.org/2000/svg">
<g clip-path="url(#clip0_458_3289)">
<path d="M24 12.0001C24 18.6274 18.6274 24.0001 12 24.0001C5.37262 24.0001 0 18.6274 0 12.0001C0 12.0029 12 0.00137354 12 6.10352e-05C18.6274 6.10352e-05 24 5.37269 24 12.0001Z" fill="#0052B4"/>
<path d="M11.9658 11.9996H11.9977C11.9977 11.9889 11.9977 11.9784 11.9977 11.9677C11.9871 11.9783 11.9765 11.9889 11.9658 11.9996Z" fill="#F0F0F0"/>
<path d="M12 6.26098C12 4.1495 12 2.76598 12 0.00012207H11.998C5.3715 0.00124707 0 5.37336 0 12.0001H6.26086V8.47461L9.78642 12.0001H11.9679C11.9786 11.9894 11.9894 11.9787 12 11.968C12 11.1596 12 10.4382 12 9.78659L8.47444 6.26098H12Z" fill="#F0F0F0"/>
<path d="M6.06929 1.56488C4.19246 2.63358 2.63218 4.19386 1.56348 6.07069V11.9997H4.69393V4.69543V4.69533H11.9983C11.9983 3.70801 11.9983 2.76741 11.9983 1.56488H6.06929Z" fill="#D80027"/>
<path d="M11.9989 10.5241L7.73544 6.26068C7.73544 6.26068 6.25977 6.26077 6.25977 6.26068V6.26077L11.9988 11.9998H11.9989C11.9989 11.9998 11.9989 10.9823 11.9989 10.5241Z" fill="#D80027"/>
<path d="M20.7818 8.90393L21.0408 9.70109H21.879L21.2009 10.1937L21.4599 10.9909L20.7818 10.4982L20.1037 10.9909L20.3627 10.1937L19.6846 9.70109H20.5227L20.7818 8.90393Z" fill="#D80027"/>
<path d="M17.7835 14.6431L18.172 15.8388H19.4293L18.4121 16.5778L18.8007 17.7735L17.7835 17.0345L16.7663 17.7735L17.1549 16.5778L16.1377 15.8388H17.3949L17.7835 14.6431Z" fill="#D80027"/>
<path d="M17.8968 5.25177L18.2206 6.24829H19.2683L18.4206 6.86399L18.7445 7.86046L17.8968 7.24457L17.0492 7.86046L17.373 6.86399L16.5254 6.24829H17.573L17.8968 5.25177Z" fill="#D80027"/>
<path d="M15.0139 8.86914L15.4024 10.0649H16.6597L15.6425 10.8039L16.0311 11.9996L15.0139 11.2606L13.9968 11.9996L14.3854 10.8039L13.3682 10.0649H14.6254L15.0139 8.86914Z" fill="#D80027"/>
</g>
<defs>
<clipPath id="clip0_458_3289">
<rect width="24" height="24" fill="white"/>
</clipPath>
</defs>
</svg>
