<svg width="24" height="24" viewBox="0 0 24 24" fill="none" xmlns="http://www.w3.org/2000/svg">
<g clip-path="url(#clip0_458_3316)">
<path d="M12 24.0002C18.6274 24.0002 24 18.6277 24 12.0002C24 5.37283 18.6274 0.000244141 12 0.000244141C5.37258 0.000244141 0 5.37283 0 12.0002C0 18.6277 5.37258 24.0002 12 24.0002Z" fill="#FFDA44"/>
<path d="M13.8249 23.862C15.7766 23.5643 17.5732 22.7957 19.0963 21.6768L12 12L13.8249 23.862Z" fill="#D80027"/>
<path d="M10.1738 0.138C8.22213 0.43575 6.42559 1.20431 4.90234 2.32317L11.9987 12L10.1738 0.138Z" fill="#D80027"/>
<path d="M4.90234 21.6768C6.4255 22.7957 8.22203 23.5642 10.1737 23.8621L11.9987 12L4.90234 21.6768Z" fill="#D80027"/>
<path d="M2.32189 4.90375C1.20298 6.427 0.434516 8.22348 0.136719 10.1752L11.9988 12.0002L2.32189 4.90375Z" fill="#D80027"/>
<path d="M0.136719 13.8249C0.434469 15.7766 1.20303 17.5732 2.32194 19.0963L11.9988 12L0.136719 13.8249Z" fill="#D80027"/>
<path d="M23.862 10.1751C23.5643 8.22348 22.7957 6.42695 21.6768 4.90375L12 12.0001L23.862 10.1751Z" fill="#D80027"/>
<path d="M19.0963 2.32313C17.5731 1.20427 15.7766 0.43575 13.8249 0.138L12 12L19.0963 2.32313Z" fill="#D80027"/>
<path d="M21.6769 19.0964C22.7958 17.5732 23.5643 15.7766 23.8621 13.825L12 12L21.6769 19.0964Z" fill="#D80027"/>
<path d="M12.001 16.1741C14.3062 16.1741 16.1749 14.3054 16.1749 12.0002C16.1749 9.69507 14.3062 7.82635 12.001 7.82635C9.69586 7.82635 7.82715 9.69507 7.82715 12.0002C7.82715 14.3054 9.69586 16.1741 12.001 16.1741Z" fill="#D80027"/>
<path d="M12.0006 15.1305C13.7295 15.1305 15.131 13.7289 15.131 12C15.131 10.2711 13.7295 8.86957 12.0006 8.86957C10.2717 8.86957 8.87012 10.2711 8.87012 12C8.87012 13.7289 10.2717 15.1305 12.0006 15.1305Z" fill="#FFDA44"/>
</g>
<defs>
<clipPath id="clip0_458_3316">
<rect width="24" height="24" fill="white"/>
</clipPath>
</defs>
</svg>
