<svg width="25" height="25" viewBox="0 0 25 25" fill="none" xmlns="http://www.w3.org/2000/svg">
<g clip-path="url(#clip0_457_1185)">
<path d="M12.0071 24.0141C18.6384 24.0141 24.0142 18.6383 24.0142 12.007C24.0142 5.37564 18.6384 -0.00012207 12.0071 -0.00012207C5.37576 -0.00012207 0 5.37564 0 12.007C0 18.6383 5.37576 24.0141 12.0071 24.0141Z" fill="#F0F0F0"/>
<path d="M11.4844 12.0068H24.0135C24.0135 10.923 23.869 9.87326 23.5999 8.87451H11.4844V12.0068Z" fill="#D80027"/>
<path d="M11.4844 5.74229H22.2512C21.5162 4.54289 20.5765 3.48275 19.4807 2.60999H11.4844V5.74229Z" fill="#D80027"/>
<path d="M12.0055 24.0139C14.8314 24.0139 17.4287 23.0372 19.4798 21.4037H4.53125C6.58235 23.0372 9.17968 24.0139 12.0055 24.0139Z" fill="#D80027"/>
<path d="M1.76177 18.2712H22.2513C22.8414 17.3084 23.299 16.2559 23.6 15.1389H0.413086C0.714061 16.2559 1.17169 17.3084 1.76177 18.2712Z" fill="#D80027"/>
<path d="M12.0071 12.007C12.0071 5.37568 12.0071 4.5939 12.0071 -0.00012207C5.3758 -0.00012207 0 5.37568 0 12.007H12.0071Z" fill="#0052B4"/>
<path d="M7.98382 10.2777C6.344 10.2777 5.01469 8.94835 5.01469 7.30858C5.01469 5.66881 6.34405 4.33945 7.98382 4.33945C8.4951 4.33945 8.97618 4.46876 9.3962 4.69633C8.73731 4.05203 7.83621 3.6543 6.84183 3.6543C4.82365 3.6543 3.1875 5.2904 3.1875 7.30863C3.1875 9.32685 4.82365 10.963 6.84183 10.963C7.83621 10.963 8.73731 10.5652 9.3962 9.92092C8.97618 10.1484 8.49515 10.2777 7.98382 10.2777Z" fill="#FFDA44"/>
<path d="M8.82164 5.22034L9.34878 6.32264L10.5392 6.04761L10.0061 7.14696L10.9635 7.90617L9.77151 8.17488L9.77484 9.39674L8.82164 8.63232L7.86839 9.39674L7.87167 8.17488L6.67969 7.90617L7.63707 7.14696L7.10392 6.04761L8.29445 6.32264L8.82164 5.22034Z" fill="#FFDA44"/>
</g>
<defs>
<clipPath id="clip0_457_1185">
<rect width="24.0142" height="24.0142" fill="white"/>
</clipPath>
</defs>
</svg>
