<svg width="24" height="24" viewBox="0 0 24 24" fill="none" xmlns="http://www.w3.org/2000/svg">
<g clip-path="url(#clip0_458_3278)">
<path d="M12.0003 23.9999C13.4682 23.9999 14.8743 23.7359 16.1742 23.2535L16.696 11.9999L16.1743 0.74633C14.8743 0.263986 13.4682 -6.10352e-05 12.0003 -6.10352e-05C10.5325 -6.10352e-05 9.12639 0.263986 7.82645 0.74633L7.30469 11.9999L7.82641 23.2535C9.12639 23.7359 10.5325 23.9999 12.0003 23.9999Z" fill="#0052B4"/>
<path d="M0 12.0001C0 17.1596 3.2565 21.5582 7.82611 23.2537V0.74646C3.2565 2.44198 0 6.84049 0 12.0001Z" fill="#A2001D"/>
<path d="M16.1738 0.746277V23.2535C20.7434 21.558 23.9999 17.1595 23.9999 11.9999C23.9999 6.84031 20.7434 2.44179 16.1738 0.746277V0.746277Z" fill="#A2001D"/>
<path d="M5.73926 11.9998H6.78274V16.1737H5.73926V11.9998Z" fill="#FFDA44"/>
<path d="M1.56445 11.9998H2.60794V16.1737H1.56445V11.9998Z" fill="#FFDA44"/>
<path d="M4.17337 14.6086C4.74967 14.6086 5.21685 14.1415 5.21685 13.5652C5.21685 12.9889 4.74967 12.5217 4.17337 12.5217C3.59707 12.5217 3.12988 12.9889 3.12988 13.5652C3.12988 14.1415 3.59707 14.6086 4.17337 14.6086Z" fill="#FFDA44"/>
<path d="M4.17309 10.4347C4.46122 10.4347 4.6948 10.2011 4.6948 9.91295C4.6948 9.62482 4.46122 9.39124 4.17309 9.39124C3.88495 9.39124 3.65137 9.62482 3.65137 9.91295C3.65137 10.2011 3.88495 10.4347 4.17309 10.4347Z" fill="#FFDA44"/>
<path d="M3.12988 15.1302H5.21685V16.1737H3.12988V15.1302Z" fill="#FFDA44"/>
<path d="M3.12988 10.9563H5.21685V11.9998H3.12988V10.9563Z" fill="#FFDA44"/>
<path d="M4.17458 6.26062L4.54414 7.39781H5.73983L4.77256 8.10065L5.14184 9.23784L4.17458 8.535L3.20736 9.23784L3.57664 8.10065L2.60938 7.39781H3.80506L4.17458 6.26062Z" fill="#FFDA44"/>
</g>
<defs>
<clipPath id="clip0_458_3278">
<rect width="24" height="24" fill="white"/>
</clipPath>
</defs>
</svg>
