<svg width="25" height="25" viewBox="0 0 25 25" fill="none" xmlns="http://www.w3.org/2000/svg">
<g clip-path="url(#clip0_458_3283)">
<path d="M23.2673 16.1834C23.75 14.8827 24.0142 13.4758 24.0142 12.0071C24.0142 10.5384 23.75 9.13143 23.2673 7.83072L12.0071 6.78662L0.746832 7.83072C0.264203 9.13143 0 10.5384 0 12.0071C0 13.4758 0.264203 14.8827 0.746832 16.1834L12.0071 17.2275L23.2673 16.1834Z" fill="#6DA544"/>
<path d="M23.2666 7.83073C21.5701 3.25842 17.169 0 12.0064 0C6.84373 0 2.44261 3.25842 0.746094 7.83073H23.2666Z" fill="#FFDA44"/>
<path d="M12.0064 24.0143C17.169 24.0143 21.5701 20.7559 23.2666 16.1836H0.746094C2.44261 20.7559 6.84373 24.0143 12.0064 24.0143Z" fill="#D80027"/>
<path d="M20.2409 10.1584H13.9509L12.0072 4.17627L10.0634 10.1584H3.77344L8.86215 13.8555L6.9184 19.8377L12.0072 16.1834L17.0959 19.8377L15.1522 13.8555L20.2409 10.1584Z" fill="#F0F0F0"/>
</g>
<defs>
<clipPath id="clip0_458_3283">
<rect width="24.0142" height="24.0142" fill="white"/>
</clipPath>
</defs>
</svg>
