<svg width="24" height="24" viewBox="0 0 24 24" fill="none" xmlns="http://www.w3.org/2000/svg">
<g clip-path="url(#clip0_458_3287)">
<path d="M12 23.9998C18.6274 23.9998 24 18.6272 24 11.9998C24 5.3724 18.6274 -0.000183105 12 -0.000183105C5.37258 -0.000183105 0 5.3724 0 11.9998C0 18.6272 5.37258 23.9998 12 23.9998Z" fill="#F0F0F0"/>
<path d="M23.9304 13.3046L23.9298 13.3038L23.9297 13.3046H23.9304Z" fill="#0052B4"/>
<path d="M23.9292 13.3042C23.9292 13.3041 23.9293 13.304 23.9293 13.3038L10.7693 0.0622559C10.1757 0.122771 9.59475 0.226553 9.02986 0.370412C3.83897 1.69205 0 11.9999 0 11.9999C0 11.9999 16.7999 23.2421 18.7165 21.9451C19.1 21.6856 19.4677 21.4044 19.8177 21.1035L12.0185 13.3042H23.9292Z" fill="#0052B4"/>
<path d="M20.8695 11.9999L9.19898 0.329407C3.92287 1.59114 0 6.33705 0 11.9999C0 18.6273 5.37262 23.9999 12 23.9999C14.5139 23.9999 16.8467 23.2264 18.7748 21.9051L8.86955 11.9999H20.8695Z" fill="#D80027"/>
<path d="M11.4126 17.718L9.94704 17.0286L10.7275 15.6093L9.13605 15.9137L8.9344 14.306L7.82595 15.4885L6.71749 14.306L6.51579 15.9137L4.92443 15.6092L5.70485 17.0286L4.23926 17.718L5.70485 18.4073L4.92443 19.8266L6.51588 19.5222L6.71745 21.1299L7.82595 19.9474L8.9344 21.1299L9.13605 19.5222L10.7274 19.8267L9.94699 18.4074L11.4126 17.718Z" fill="#F0F0F0"/>
<path d="M10.4362 6.65502L9.37023 6.1537L9.93784 5.12137L8.78036 5.34281L8.63369 4.17346L7.82748 5.03348L7.02128 4.17346L6.87456 5.34281L5.71708 5.12137L6.28473 6.1537L5.21875 6.65502L7.82748 7.17684L10.4362 6.65502Z" fill="#F0F0F0"/>
<path d="M10.9562 6.65503C10.9562 8.38392 9.55466 9.78548 7.82577 9.78548C6.09687 9.78548 4.69531 8.38392 4.69531 6.65503" fill="#F0F0F0"/>
</g>
<defs>
<clipPath id="clip0_458_3287">
<rect width="24" height="24" fill="white"/>
</clipPath>
</defs>
</svg>
