<svg width="25" height="25" viewBox="0 0 25 25" fill="none" xmlns="http://www.w3.org/2000/svg">
<g clip-path="url(#clip0_457_1364)">
<path d="M12.0071 24.0141C18.6384 24.0141 24.0142 18.6383 24.0142 12.007C24.0142 5.37564 18.6384 -0.00012207 12.0071 -0.00012207C5.37576 -0.00012207 0 5.37564 0 12.007C0 18.6383 5.37576 24.0141 12.0071 24.0141Z" fill="#F0F0F0"/>
<path d="M12.0083 -0.00012207C6.84568 -0.00012207 2.44456 3.2583 0.748047 7.83061H23.2686C21.572 3.2583 17.1709 -0.00012207 12.0083 -0.00012207Z" fill="#A2001D"/>
<path d="M12.0083 24.014C17.1709 24.014 21.572 20.7555 23.2686 16.1832H0.748047C2.44456 20.7555 6.84568 24.014 12.0083 24.014Z" fill="#0052B4"/>
</g>
<defs>
<clipPath id="clip0_457_1364">
<rect width="24.0142" height="24.0142" fill="white"/>
</clipPath>
</defs>
</svg>
