<svg width="24" height="24" viewBox="0 0 24 24" fill="none" xmlns="http://www.w3.org/2000/svg">
<g clip-path="url(#clip0_458_3298)">
<path d="M12 23.9995C18.6274 23.9995 24 18.6269 24 11.9995C24 5.37209 18.6274 -0.000488281 12 -0.000488281C5.37258 -0.000488281 0 5.37209 0 11.9995C0 18.6269 5.37258 23.9995 12 23.9995Z" fill="#F0F0F0"/>
<path d="M0.413086 15.1301C1.1074 17.7063 2.63763 19.9392 4.69535 21.5202V15.1301H0.413086Z" fill="#D80027"/>
<path d="M10.9541 23.954C11.2981 23.9836 11.6459 23.9997 11.9976 23.9997C17.5419 23.9997 22.2072 20.2393 23.5842 15.1301H10.9541V23.954Z" fill="#D80027"/>
<path d="M23.5842 8.8693C22.2072 3.76012 17.5419 -0.000244141 11.9976 -0.000244141C11.6459 -0.000244141 11.2981 0.0157871 10.9541 0.0454121V8.8693H23.5842Z" fill="#D80027"/>
<path d="M4.69535 2.47925C2.63763 4.06034 1.1074 6.29314 0.413086 8.86934H4.69535V2.47925Z" fill="#D80027"/>
<path d="M23.8984 10.4347H9.39136H9.39131V0.285156C8.28234 0.531062 7.23098 0.929641 6.26086 1.459V10.4346V10.4347H0.101578C0.0347813 10.9471 0 11.4694 0 11.9999C0 12.5304 0.0347813 13.0528 0.101578 13.5651H6.26081H6.26086V22.5408C7.23098 23.0701 8.28234 23.4688 9.39131 23.7146V13.5653V13.5652H23.8984C23.9651 13.0528 24 12.5304 24 11.9999C24 11.4694 23.9651 10.9471 23.8984 10.4347V10.4347Z" fill="#0052B4"/>
</g>
<defs>
<clipPath id="clip0_458_3298">
<rect width="24" height="24" fill="white"/>
</clipPath>
</defs>
</svg>
