<svg width="24" height="24" viewBox="0 0 24 24" fill="none" xmlns="http://www.w3.org/2000/svg">
<g clip-path="url(#clip0_458_3206)">
<path d="M0 12.0001C0 13.468 0.264047 14.8741 0.746437 16.1741L12 17.2175L23.2536 16.1741C23.736 14.8741 24 13.468 24 12.0001C24 10.5524 23.7435 9.16453 23.2737 7.87954L12 6.78271L0.726281 7.87959C0.256453 9.16453 0 10.5524 0 12.0001H0Z" fill="#FFDA44"/>
<path d="M11.9997 24.0001C17.1593 24.0001 21.5578 20.7436 23.2533 16.174H0.746094C2.44161 20.7436 6.84013 24.0001 11.9997 24.0001Z" fill="#D80027"/>
<path d="M11.9997 -0.00012207C6.84012 -0.00012207 2.44161 3.25638 0.746094 7.82599H23.2534C21.5578 3.25638 17.1593 -0.00012207 11.9997 -0.00012207V-0.00012207Z" fill="#6DA544"/>
<path d="M11.9999 17.7391C15.1695 17.7391 17.739 15.1696 17.739 12C17.739 8.83036 15.1695 6.26086 11.9999 6.26086C8.83024 6.26086 6.26074 8.83036 6.26074 12C6.26074 15.1696 8.83024 17.7391 11.9999 17.7391Z" fill="#0052B4"/>
<path d="M11.999 7.55554L13.035 10.7441H16.393L13.6753 12.7147L14.7195 15.9127L11.999 13.9327L9.28269 15.9091L10.3227 12.7147L7.60742 10.7441H10.963L11.999 7.55554Z" fill="#FFDA44"/>
<path d="M16.1308 12.7934L12.8441 11.7254L14.8753 8.92981L14.0312 8.31641L11.9999 11.1122L9.96872 8.31645L9.1245 8.92977L11.1557 11.7256L7.86914 12.7934L8.19155 13.7859L11.4782 12.718V16.1737H12.5217V12.718L15.8082 13.7859L16.1308 12.7934Z" fill="#FFDA44"/>
</g>
<defs>
<clipPath id="clip0_458_3206">
<rect width="24" height="24" fill="white"/>
</clipPath>
</defs>
</svg>
