<svg width="24" height="24" viewBox="0 0 24 24" fill="none" xmlns="http://www.w3.org/2000/svg">
<g clip-path="url(#clip0_458_3302)">
<path d="M12 23.9995C18.6274 23.9995 24 18.6269 24 11.9995C24 5.37209 18.6274 -0.000488281 12 -0.000488281C5.37258 -0.000488281 0 5.37209 0 11.9995C0 18.6269 5.37258 23.9995 12 23.9995Z" fill="#F0F0F0"/>
<path d="M0 11.9998C0 16.5483 2.53073 20.5054 6.26086 22.5407V1.45886C2.53073 3.49413 0 7.45127 0 11.9998Z" fill="#F0F0F0"/>
<path d="M11.9979 -0.00012207C9.91902 -0.00012207 7.96368 0.528769 6.25879 1.45896V22.5408C7.96368 23.471 9.91902 23.9999 11.9979 23.9999C18.6253 23.9999 23.9979 18.6273 23.9979 11.9999C23.9979 5.3725 18.6253 -0.00012207 11.9979 -0.00012207Z" fill="#496E2D"/>
<path d="M17.1307 13.9843C15.6126 15.0813 13.4926 14.7398 12.3957 13.2217C11.2987 11.7035 11.6402 9.58362 13.1584 8.48675C13.6317 8.14475 14.1636 7.94258 14.7046 7.87231C13.6637 7.71664 12.5633 7.9512 11.6428 8.61631C9.77437 9.9664 9.35404 12.5755 10.7041 14.444C12.0541 16.3124 14.6633 16.7328 16.5318 15.3826C17.4524 14.7175 18.0206 13.7466 18.1995 12.7093C17.963 13.2008 17.6041 13.6423 17.1307 13.9843V13.9843Z" fill="#F0F0F0"/>
<path d="M17.0649 7.82593L17.9201 8.74754L19.0609 8.21916L18.4485 9.31716L19.3037 10.2389L18.0701 9.99582L17.4578 11.0939L17.3078 9.84563L16.0742 9.60258L17.215 9.07421L17.0649 7.82593Z" fill="#F0F0F0"/>
</g>
<defs>
<clipPath id="clip0_458_3302">
<rect width="24" height="24" fill="white"/>
</clipPath>
</defs>
</svg>
