<svg width="24" height="24" viewBox="0 0 24 24" fill="none" xmlns="http://www.w3.org/2000/svg">
<g clip-path="url(#clip0_458_3131)">
<path d="M17.2165 1.19066C15.6389 0.427814 13.869 -6.10352e-05 11.9991 -6.10352e-05C10.1293 -6.10352e-05 8.35939 0.427814 6.78177 1.19066L5.73828 11.9999L6.78177 22.8092C8.35939 23.5721 10.1293 23.9999 11.9991 23.9999C13.869 23.9999 15.6389 23.5721 17.2165 22.8092L18.26 11.9999L17.2165 1.19066Z" fill="#D80027"/>
<path d="M6.78262 1.1911C2.76872 3.13205 0 7.24248 0 12C0 16.7574 2.76872 20.8679 6.78262 22.8088V1.1911Z" fill="black"/>
<path d="M17.2158 1.1911V22.8088C21.2297 20.8679 23.9984 16.7574 23.9984 12C23.9984 7.24248 21.2297 3.13205 17.2158 1.1911Z" fill="#496E2D"/>
<path d="M11.9981 7.82587C9.69289 7.82587 7.82422 9.69459 7.82422 11.9998C7.82422 14.3049 9.69294 16.1736 11.9981 16.1736C14.3033 16.1736 16.172 14.3049 16.172 11.9998C16.172 9.69459 14.3033 7.82587 11.9981 7.82587ZM11.9981 14.6084C10.5574 14.6084 9.38942 13.4405 9.38942 11.9998C9.38942 10.5591 10.5574 9.39107 11.9981 9.39107C13.4388 9.39107 14.6068 10.5591 14.6068 11.9998C14.6068 13.4405 13.4389 14.6084 11.9981 14.6084Z" fill="#FFDA44"/>
<path d="M11.9976 10.4344C11.4213 10.4344 10.9541 10.9015 10.9541 11.4779V13.0431H13.0411V11.4779C13.0411 10.9015 12.5739 10.4344 11.9976 10.4344V10.4344Z" fill="#FFDA44"/>
</g>
<defs>
<clipPath id="clip0_458_3131">
<rect width="24" height="24" fill="white"/>
</clipPath>
</defs>
</svg>
