<svg width="24" height="24" viewBox="0 0 24 24" fill="none" xmlns="http://www.w3.org/2000/svg">
<g clip-path="url(#clip0_457_2404)">
<mask id="mask0_457_2404" style="mask-type:alpha" maskUnits="userSpaceOnUse" x="0" y="0" width="24" height="24">
<path d="M20.4853 3.51469L20.4853 0H0V20.4853L3.51472 20.4853L16.5 16.5L20.4853 3.51469Z" fill="#FF00FF"/>
</mask>
<g mask="url(#mask0_457_2404)">
<path d="M17.625 1.39733C15.9472 0.505374 14.0326 -3.34726e-07 12 -2.45877e-07C9.96736 -1.57027e-07 8.05276 0.505375 6.375 1.39733L6.375 22.6027C8.05277 23.4946 9.96736 24 12 24C14.0326 24 15.9472 23.4946 17.625 22.6027L17.625 1.39733Z" fill="#D80027"/>
<path d="M16.125 0.727797C20.7204 2.40992 24 6.82196 24 12C24 17.1781 20.7204 21.5901 16.125 23.2722L16.125 0.727797Z" fill="#D80027"/>
<path d="M7.875 0.727796L7.875 23.2722C3.27964 21.5901 -2.66384e-07 17.1781 -4.92724e-07 12C-7.19064e-07 6.82196 3.27964 2.40992 7.875 0.727796Z" fill="#496E2D"/>
<path d="M7.82812 16.1719C10.1322 16.1719 12 14.3041 12 12C12 9.69594 10.1322 7.82812 7.82812 7.82812C5.52406 7.82812 3.65625 9.69594 3.65625 12C3.65625 14.3041 5.52406 16.1719 7.82812 16.1719Z" fill="#FFDA44"/>
<path d="M5.08594 9.49688V12.5391C5.08594 13.5187 5.60625 14.4187 6.45469 14.9109C7.30312 15.3984 8.34844 15.3984 9.19687 14.9109C10.0453 14.4187 10.5656 13.5187 10.5656 12.5391V9.49219H5.09062L5.08594 9.49688Z" fill="#D80027"/>
<path d="M7.82852 14.2593C6.94258 14.2593 6.2207 13.5375 6.2207 12.6515V10.5281H9.43633V12.6421C9.43633 13.5281 8.71445 14.25 7.82852 14.25V14.2593Z" fill="#EEEEEE"/>
<path d="M8.14648 13.4065C8.14637 13.5798 8.0015 13.72 7.82812 13.72V13.7249C7.65475 13.7249 7.50988 13.5798 7.50977 13.4065V12.9895H8.14648V13.4065ZM7.21875 12.3938C7.21875 12.5671 7.07833 12.7119 6.90039 12.7122C6.72695 12.7122 6.58594 12.5719 6.58594 12.3938V11.9768H7.21875V12.3938ZM8.14648 12.3938C8.14648 12.5672 8.00156 12.7122 7.82812 12.7122C7.65469 12.7122 7.50977 12.5719 7.50977 12.3938V11.9768H8.14648V12.3938ZM9.07031 12.3938C9.07031 12.5672 8.9293 12.7122 8.75586 12.7122C8.57792 12.712 8.4375 12.5718 8.4375 12.3938V11.9768H9.07031V12.3938ZM8.14648 11.3811C8.14648 11.5592 8.00156 11.7004 7.82812 11.7004C7.65469 11.7004 7.50977 11.5594 7.50977 11.386V10.9641H8.14648V11.3811Z" fill="#0052B4"/>
</g>
<path d="M3.51472 20.4853C8.20101 25.1716 15.799 25.1716 20.4853 20.4853C25.1716 15.799 25.1716 8.20101 20.4853 3.51472L3.51472 20.4853Z" fill="#6DA544"/>
<path d="M21.9131 11.9995L12.001 19.3042L7.79492 16.2046L16.2051 7.79443L21.9131 11.9995Z" fill="#FFDA44"/>
<path d="M13.7285 7.82617C14.4839 8.58147 14.9511 9.62473 14.9512 10.7773C14.9512 13.0825 13.0825 14.9512 10.7773 14.9512C9.62473 14.9511 8.58147 14.4839 7.82617 13.7285L13.7285 7.82617Z" fill="#EEEEEE"/>
<path d="M11.957 12.0417C13.3369 12.4611 14.5387 13.2936 15.418 14.3943C14.663 15.47 13.414 16.1735 12 16.1736C10.8471 16.1735 9.80401 15.7057 9.04883 14.95L11.957 12.0417ZM14.9512 9.04858C15.7065 9.80386 16.1738 10.8472 16.1738 11.9998C16.1738 12.2733 16.1469 12.5407 16.0967 12.7996C15.2772 11.9529 14.2849 11.2756 13.1787 10.8201L14.9512 9.04858Z" fill="#0052B4"/>
</g>
<defs>
<clipPath id="clip0_457_2404">
<rect width="24" height="24" fill="white"/>
</clipPath>
</defs>
</svg>
