<svg width="24" height="24" viewBox="0 0 24 24" fill="none" xmlns="http://www.w3.org/2000/svg">
<g clip-path="url(#clip0_458_3308)">
<path d="M12 23.9999C18.6274 23.9999 24 18.6274 24 11.9999C24 5.37252 18.6274 -6.10352e-05 12 -6.10352e-05C5.37258 -6.10352e-05 0 5.37252 0 11.9999C0 18.6274 5.37258 23.9999 12 23.9999Z" fill="#F0F0F0"/>
<path d="M24.0009 11.9997C24.0009 6.84019 20.7444 2.44162 16.1748 0.746155V23.2534C20.7444 21.5578 24.0009 17.1593 24.0009 11.9997V11.9997Z" fill="#D80027"/>
<path d="M0 11.9998C0 17.1595 3.2565 21.5579 7.82611 23.2535V0.746277C3.2565 2.44175 0 6.84031 0 11.9998V11.9998Z" fill="#D80027"/>
</g>
<defs>
<clipPath id="clip0_458_3308">
<rect width="24" height="24" fill="white"/>
</clipPath>
</defs>
</svg>
