<svg width="24" height="24" viewBox="0 0 24 24" fill="none" xmlns="http://www.w3.org/2000/svg">
<g clip-path="url(#clip0_458_3318)">
<path d="M16.1735 0.746588C14.8735 0.264291 13.4674 0.000244147 11.9996 0.000244147C10.5318 0.000197272 9.1257 0.264291 7.82571 0.746588L6.78223 12.0002L7.82571 23.2538C9.12565 23.7362 10.5317 24.0002 11.9996 24.0002C13.4674 24.0002 14.8735 23.7362 16.1735 23.2538L17.2169 12.0002L16.1735 0.746588Z" fill="#FFDA44"/>
<path d="M23.9999 12.0002C23.9999 6.84066 20.7434 2.44205 16.1738 0.746582V23.2539C20.7434 21.5582 23.9999 17.1598 23.9999 12.0002Z" fill="#D80027"/>
<path d="M0 12.0001C0 17.1598 3.2565 21.5582 7.82602 23.2538L7.82606 0.746582C3.2565 2.44205 0 6.84052 0 12.0001H0Z" fill="#0052B4"/>
</g>
<defs>
<clipPath id="clip0_458_3318">
<rect width="24" height="24" fill="white"/>
</clipPath>
</defs>
</svg>
