<svg width="25" height="25" viewBox="0 0 25 25" fill="none" xmlns="http://www.w3.org/2000/svg">
<g clip-path="url(#clip0_457_1582)">
<path d="M12.0071 24.0144C18.6384 24.0144 24.0142 18.6387 24.0142 12.0073C24.0142 5.376 18.6384 0.000244141 12.0071 0.000244141C5.37576 0.000244141 0 5.376 0 12.0073C0 18.6387 5.37576 24.0144 12.0071 24.0144Z" fill="#F0F0F0"/>
<path d="M23.2673 16.1836C23.75 14.8829 24.0142 13.476 24.0142 12.0073C24.0142 10.5386 23.75 9.13169 23.2673 7.83093H0.746832C0.264203 9.13169 0 10.5386 0 12.0073C0 13.476 0.264203 14.8829 0.746832 16.1836L12.0071 17.2277L23.2673 16.1836Z" fill="#0052B4"/>
<path d="M12.0054 24.0145C17.168 24.0145 21.5691 20.756 23.2656 16.1837H0.745117C2.44163 20.756 6.84275 24.0145 12.0054 24.0145Z" fill="#D80027"/>
</g>
<defs>
<clipPath id="clip0_457_1582">
<rect width="24.0142" height="24.0142" fill="white"/>
</clipPath>
</defs>
</svg>
