<svg width="24" height="24" viewBox="0 0 24 24" fill="none" xmlns="http://www.w3.org/2000/svg">
<g clip-path="url(#clip0_458_3334)">
<path d="M12.001 24.0002C18.6284 24.0002 24.001 18.6277 24.001 12.0002C24.001 5.37283 18.6284 0.000244141 12.001 0.000244141C5.37356 0.000244141 0.000976562 5.37283 0.000976562 12.0002C0.000976562 18.6277 5.37356 24.0002 12.001 24.0002Z" fill="#F0F0F0"/>
<path d="M12 23.9999C18.6274 23.9999 24 18.6273 24 11.9999C24 10.5321 23.736 9.12599 23.2536 7.82605H0.746391C0.264047 9.12599 0 10.5321 0 11.9999C0 18.6273 5.37262 23.9999 12 23.9999Z" fill="#0052B4"/>
<path d="M11.9987 24.0002C17.1583 24.0002 21.5568 20.7437 23.2523 16.1741H0.745117C2.44063 20.7437 6.83915 24.0002 11.9987 24.0002Z" fill="#D80027"/>
<path d="M3.10352 6.78284V12.7691C3.10352 16.1742 7.552 17.2176 7.552 17.2176C7.552 17.2176 12.0004 16.1742 12.0004 12.7691V6.78284H3.10352Z" fill="#F0F0F0"/>
<path d="M4.14844 6.78284V12.7691C4.14844 13.1688 4.23722 13.5463 4.41309 13.9003H10.6937C10.8696 13.5464 10.9584 13.1688 10.9584 12.7691V6.78284H4.14844Z" fill="#D80027"/>
<path d="M9.63873 10.9565H8.07358V9.91297H9.11706V8.86949H8.07358V7.82605H7.03009V8.86949H5.98666V9.91297H7.03009V10.9565H5.46484V11.9999H7.03009V13.0434H8.07358V11.9999H9.63873V10.9565Z" fill="#F0F0F0"/>
<path d="M5.8344 15.3568C6.50682 15.7794 7.19766 16.0247 7.55134 16.1339C7.90501 16.0248 8.59585 15.7794 9.26827 15.3568C9.94637 14.9306 10.4217 14.4432 10.6916 13.9002C10.3939 13.6896 10.0307 13.5653 9.6383 13.5653C9.49543 13.5653 9.35663 13.5823 9.22318 13.6133C8.94038 12.9708 8.29843 12.5219 7.55138 12.5219C6.80434 12.5219 6.16234 12.9708 5.87959 13.6133C5.74613 13.5823 5.60729 13.5653 5.46446 13.5653C5.07207 13.5653 4.70884 13.6896 4.41113 13.9002C4.6809 14.4432 5.15626 14.9306 5.8344 15.3568Z" fill="#0052B4"/>
</g>
<defs>
<clipPath id="clip0_458_3334">
<rect width="24" height="24" fill="white"/>
</clipPath>
</defs>
</svg>
