<svg width="25" height="25" viewBox="0 0 25 25" fill="none" xmlns="http://www.w3.org/2000/svg">
<g clip-path="url(#clip0_458_3335)">
<path d="M12.0071 24.0147C18.6384 24.0147 24.0142 18.6389 24.0142 12.0076C24.0142 5.37625 18.6384 0.000488281 12.0071 0.000488281C5.37576 0.000488281 0 5.37625 0 12.0076C0 18.6389 5.37576 24.0147 12.0071 24.0147Z" fill="#F0F0F0"/>
<path d="M23.2673 7.83079H10.441V4.69849H4.17636V7.83079H0.746832C0.264203 9.13149 0 10.5384 0 12.0071C0 13.4759 0.264203 14.8828 0.746832 16.1835L12.0071 17.2276L23.2673 16.1835C23.75 14.8828 24.0142 13.4759 24.0142 12.0071C24.0142 10.5384 23.75 9.13149 23.2673 7.83079Z" fill="#0052B4"/>
<path d="M12.0064 24.0146C17.169 24.0146 21.5701 20.7561 23.2666 16.1838H0.746094C2.44261 20.7561 6.84373 24.0146 12.0064 24.0146Z" fill="#D80027"/>
<path d="M4.1748 7.83087V8.87492C4.1748 11.2726 7.30711 12.0073 7.30711 12.0073C7.30711 12.0073 10.4394 11.2726 10.4394 8.87492V7.83087L9.39531 8.87497L7.30711 7.30884L5.21891 8.87497L4.1748 7.83087Z" fill="#F0F0F0"/>
</g>
<defs>
<clipPath id="clip0_458_3335">
<rect width="24.0142" height="24.0142" fill="white"/>
</clipPath>
</defs>
</svg>
