<svg width="24" height="24" viewBox="0 0 24 24" fill="none" xmlns="http://www.w3.org/2000/svg">
<g clip-path="url(#clip0_458_3133)">
<path d="M12 23.9998C18.6274 23.9998 24 18.6272 24 11.9998C24 5.37234 18.6274 -0.000244141 12 -0.000244141C5.37258 -0.000244141 0 5.37234 0 11.9998C0 18.6272 5.37258 23.9998 12 23.9998Z" fill="#D80027"/>
<path d="M18.781 8.90651H14.4345C14.7028 8.62554 14.8679 8.24515 14.8679 7.82595C14.8679 6.96152 14.1672 6.26074 13.3027 6.26074C12.7581 6.26074 12.2788 6.53899 11.9984 6.96091C11.718 6.53899 11.2386 6.26074 10.6941 6.26074C9.82963 6.26074 9.12885 6.96152 9.12885 7.82595C9.12885 8.24515 9.29399 8.62559 9.5623 8.90651H5.21582C5.21582 10.0591 6.21974 10.9934 7.37226 10.9934H7.3027C7.3027 12.1461 8.23706 13.0804 9.38971 13.0804C9.38971 13.4538 9.4881 13.8037 9.65985 14.1067L7.92876 15.8379L9.25691 17.1659L11.1409 15.282C11.2147 15.309 11.2911 15.3307 11.3699 15.3455L10.2314 17.9159L11.9984 19.8259L13.7654 17.9158L12.6269 15.3454C12.7058 15.3306 12.7821 15.309 12.8559 15.2819L14.7399 17.1658L16.068 15.8377L14.3369 14.1066C14.5087 13.8036 14.6071 13.4536 14.6071 13.0803C15.7597 13.0803 16.6941 12.146 16.6941 10.9933H16.6245C17.7771 10.9934 18.781 10.0591 18.781 8.90651V8.90651Z" fill="black"/>
</g>
<defs>
<clipPath id="clip0_458_3133">
<rect width="24" height="24" fill="white"/>
</clipPath>
</defs>
</svg>
