<svg width="25" height="25" viewBox="0 0 25 25" fill="none" xmlns="http://www.w3.org/2000/svg">
<g clip-path="url(#clip0_457_1670)">
<path d="M12.0071 24.0142C18.6384 24.0142 24.0142 18.6384 24.0142 12.0071C24.0142 5.37576 18.6384 0 12.0071 0C5.37576 0 0 5.37576 0 12.0071C0 18.6384 5.37576 24.0142 12.0071 24.0142Z" fill="#F0F0F0"/>
<path d="M12.0071 0C5.3758 0 0 5.3758 0 12.0071C0 13.4758 0.264203 14.8827 0.746832 16.1834H23.2674C23.75 14.8827 24.0142 13.4758 24.0142 12.0071C24.0142 5.3758 18.6384 0 12.0071 0Z" fill="#0052B4"/>
<path d="M12.0073 -0.00012207C6.8447 -0.00012207 2.44359 3.2583 0.74707 7.83061H23.2676C21.5711 3.2583 17.17 -0.00012207 12.0073 -0.00012207Z" fill="#D80027"/>
<path d="M3.10645 6.78674V12.7765C3.10645 16.1837 7.55756 17.2277 7.55756 17.2277C7.55756 17.2277 12.0086 16.1837 12.0086 12.7765V6.78674H3.10645Z" fill="#D80027"/>
<path d="M4.94727 7.83091H10.1678V5.74271L9.12367 6.26474L7.55754 4.69861L5.99137 6.26474L4.94727 5.74271V7.83091Z" fill="#FFDA44"/>
<path d="M10.9644 13.6107L7.57105 10.2174L4.17773 13.6107L5.28515 14.7181L7.57105 12.4322L9.85695 14.7181L10.9644 13.6107Z" fill="#FFDA44"/>
<path d="M10.9644 10.441H9.38112C9.47014 10.2874 9.52192 10.1094 9.52192 9.9191C9.52192 9.34239 9.05444 8.875 8.47782 8.875C8.07938 8.875 7.73338 9.09816 7.55736 9.42625C7.38133 9.09821 7.03533 8.875 6.63689 8.875C6.06027 8.875 5.59279 9.34239 5.59279 9.9191C5.59279 10.1094 5.64457 10.2874 5.73359 10.441H4.17773C4.17773 11.0177 4.68002 11.4851 5.25659 11.4851H5.22184C5.22184 12.0618 5.68927 12.5292 6.26594 12.5292C6.26594 13.0398 6.63262 13.464 7.11689 13.5548L6.29422 15.4123C6.68848 15.5725 7.11933 15.6615 7.5711 15.6615C8.02286 15.6615 8.45371 15.5725 8.84798 15.4123L8.0253 13.5548C8.50957 13.4641 8.87626 13.0399 8.87626 12.5292C9.45293 12.5292 9.92036 12.0618 9.92036 11.4851H9.8856C10.4621 11.4851 10.9644 11.0177 10.9644 10.441Z" fill="#F0F0F0"/>
</g>
<defs>
<clipPath id="clip0_457_1670">
<rect width="24.0142" height="24.0142" fill="white"/>
</clipPath>
</defs>
</svg>
