<svg width="24" height="24" viewBox="0 0 24 24" fill="none" xmlns="http://www.w3.org/2000/svg">
<g clip-path="url(#clip0_458_3256)">
<path d="M0 12.0002C0 13.8701 0.427828 15.64 1.19072 17.2176L12 17.7394L22.8093 17.2177C23.5722 15.64 24 13.8701 24 12.0002C24 10.1304 23.5722 8.3605 22.8093 6.78287L12 6.26111L1.19072 6.78283C0.427828 8.3605 0 10.1304 0 12.0002H0Z" fill="#F0F0F0"/>
<path d="M12.0017 24.0002C16.7591 24.0002 20.8699 21.2315 22.8109 17.2175H1.19238C3.13338 21.2315 7.24413 24.0002 12.0017 24.0002Z" fill="#6DA544"/>
<path d="M12.0017 0.00012207C7.24413 0.00012207 3.13338 2.76879 1.19238 6.78275H22.8109C20.8699 2.76879 16.7591 0.00012207 12.0017 0.00012207V0.00012207Z" fill="#0052B4"/>
<path d="M12.7828 11.7393V8.86975H11.2176V11.7393L9.32715 13.6298C9.87695 14.5298 10.8684 15.1306 12.0002 15.1306C13.1321 15.1306 14.1235 14.5298 14.6733 13.6298L12.7828 11.7393Z" fill="black"/>
</g>
<defs>
<clipPath id="clip0_458_3256">
<rect width="24" height="24" fill="white"/>
</clipPath>
</defs>
</svg>
