<svg width="25" height="25" viewBox="0 0 25 25" fill="none" xmlns="http://www.w3.org/2000/svg">
<g clip-path="url(#clip0_457_1859)">
<path d="M12.0071 24.0143C18.6384 24.0143 24.0142 18.6385 24.0142 12.0072C24.0142 5.37588 18.6384 0.00012207 12.0071 0.00012207C5.37576 0.00012207 0 5.37588 0 12.0072C0 18.6385 5.37576 24.0143 12.0071 24.0143Z" fill="#FFDA44"/>
<path d="M9.39751 10.441H23.9131C23.1457 4.54966 18.1082 0 12.0077 0C11.1112 0 10.2379 0.0991054 9.39746 0.285403V10.441H9.39751Z" fill="#0052B4"/>
<path d="M6.26448 10.4409V1.45996C2.9675 3.25887 0.607314 6.55852 0.101562 10.441H6.26448V10.4409Z" fill="#0052B4"/>
<path d="M6.26444 13.573H0.101562C0.607314 17.4555 2.9675 20.7551 6.26448 22.554L6.26444 13.573Z" fill="#0052B4"/>
<path d="M9.39746 13.573V23.7286C10.2379 23.9149 11.1112 24.014 12.0077 24.014C18.1082 24.014 23.1457 19.4643 23.9131 13.573H9.39746V13.573Z" fill="#0052B4"/>
</g>
<defs>
<clipPath id="clip0_457_1859">
<rect width="24.0142" height="24.0142" fill="white"/>
</clipPath>
</defs>
</svg>
