<svg width="24" height="24" viewBox="0 0 24 24" fill="none" xmlns="http://www.w3.org/2000/svg">
<g clip-path="url(#clip0_458_3248)">
<path d="M12 24.0002C18.6274 24.0002 24 18.6277 24 12.0002C24 5.37283 18.6274 0.000244141 12 0.000244141C5.37258 0.000244141 0 5.37283 0 12.0002C0 18.6277 5.37258 24.0002 12 24.0002Z" fill="#F0F0F0"/>
<path d="M11.9987 0.000244141C7.2412 0.000244141 3.13045 2.76892 1.18945 6.78287H22.808C20.867 2.76892 16.7562 0.000244141 11.9987 0.000244141V0.000244141Z" fill="black"/>
<path d="M11.9987 24.0002C7.2412 24.0002 3.13045 21.2315 1.18945 17.2175H22.808C20.867 21.2315 16.7562 24.0002 11.9987 24.0002V24.0002Z" fill="#496E2D"/>
<path d="M23.4333 8.34814H0.566672C0.199078 9.49982 0 10.7268 0 12.0003C0 13.2739 0.199078 14.5008 0.566672 15.6525H23.4333C23.8009 14.5008 24 13.2739 24 12.0003C24 10.7268 23.8009 9.49982 23.4333 8.34814Z" fill="#A2001D"/>
<path d="M15.735 5.54581L14.3139 4.88989L11.9984 10.1329L9.68283 4.88989L8.26172 5.54581L11.1365 12.0005L8.26172 18.4551L9.68283 19.111L11.9984 13.868L14.3139 19.111L15.735 18.4551L12.8603 12.0005L15.735 5.54581Z" fill="#F0F0F0"/>
<path d="M12.9665 6.16419C12.4164 5.56339 12.0013 5.21802 12.0013 5.21802C12.0013 5.21802 11.5863 5.56335 11.0361 6.16419V17.837C11.5863 18.4379 12.0013 18.7833 12.0013 18.7833C12.0013 18.7833 12.4164 18.4379 12.9665 17.837V6.16419Z" fill="#F0F0F0"/>
<path d="M9.39062 8.40214V15.598C9.97197 16.6281 10.6835 17.4724 11.2167 18.0322V5.96802C10.6835 6.52775 9.97192 7.37211 9.39062 8.40214V8.40214Z" fill="#A2001D"/>
<path d="M14.6083 8.40214C14.0269 7.37206 13.3155 6.52775 12.7822 5.96802V18.0322C13.3154 17.4724 14.0269 16.6281 14.6083 15.598V8.40214Z" fill="#A2001D"/>
<path d="M14.6074 8.40259V15.5985C15.1959 14.5555 15.6509 13.3223 15.6509 12.0006C15.6509 10.6788 15.1959 9.44556 14.6074 8.40259Z" fill="black"/>
<path d="M9.39016 8.40259V15.5985C8.80165 14.5555 8.34668 13.3223 8.34668 12.0006C8.34668 10.6788 8.80165 9.44556 9.39016 8.40259Z" fill="black"/>
</g>
<defs>
<clipPath id="clip0_458_3248">
<rect width="24" height="24" fill="white"/>
</clipPath>
</defs>
</svg>
