<svg width="24" height="24" viewBox="0 0 24 24" fill="none" xmlns="http://www.w3.org/2000/svg">
<g clip-path="url(#clip0_458_3342)">
<path d="M12 24.0001C18.6274 24.0001 23.9999 18.6275 23.9999 12.0001C23.9999 5.37269 18.6274 0.00012207 12 0.00012207C5.37257 0.00012207 0 5.37269 0 12.0001C0 18.6275 5.37257 24.0001 12 24.0001Z" fill="#FFDA44"/>
<path d="M9.39052 2.08716H5.23574C5.05162 2.21302 4.87143 2.34403 4.69485 2.47964L3.65137 12.0002L4.69485 21.5207C4.87143 21.6563 5.05162 21.7873 5.23574 21.9132H9.39052V2.08716Z" fill="#FF9811"/>
<path d="M0 12.0003C0 15.879 1.84069 19.3272 4.69566 21.5208V2.47974C1.84069 4.6734 0 8.12162 0 12.0003V12.0003Z" fill="#6DA544"/>
<path d="M19.3047 7.31567V7.61576L19.3158 7.61745L19.3047 7.31567Z" fill="#FFDA44"/>
<path d="M23.0421 15.1306H20.7811L19.8246 16.1741V18.2611H17.7377V17.2176H18.7812V15.1306H14.0855V16.435H13.042V13.9491C12.7218 13.6625 12.5203 13.2462 12.5203 12.7828V6.0002C12.5203 5.13577 13.2211 4.43499 14.0855 4.43499V14.0872H16.1725L16.8885 13.4904C16.7635 13.1925 16.6942 12.8654 16.6942 12.522V10.9568H15.129V7.82636H18.2594C18.2594 7.30464 19.042 6.78287 19.042 6.78287C19.042 6.78287 19.8246 7.30459 19.8246 7.82636V8.60898V10.9568C20.4051 10.9637 21.3273 10.9487 22.3236 10.9568C22.0619 10.4993 21.9116 9.95646 21.9116 9.39161C21.9116 8.47094 22.3091 7.64322 22.9418 7.0704C22.0298 5.04938 20.5745 3.32616 18.762 2.08716H10.9551V21.9133H18.762C20.966 20.4066 22.6418 18.1843 23.4548 15.5809L23.0421 15.1306Z" fill="#A2001D"/>
</g>
<defs>
<clipPath id="clip0_458_3342">
<rect width="24" height="24" fill="white"/>
</clipPath>
</defs>
</svg>
