<svg width="24" height="24" viewBox="0 0 24 24" fill="none" xmlns="http://www.w3.org/2000/svg">
<g clip-path="url(#clip0_458_3353)">
<path d="M1.19072 6.78262C0.427875 8.36025 0 10.1302 0 12C0 13.8698 0.427875 15.6397 1.19072 17.2174L12 18.2609L22.8093 17.2174C23.5721 15.6397 24 13.8698 24 12C24 10.1302 23.5721 8.36025 22.8093 6.78262L12 5.73914L1.19072 6.78262Z" fill="#F0F0F0"/>
<path d="M1.19238 17.2174C3.13334 21.2313 7.24376 24 12.0012 24C16.7587 24 20.8692 21.2313 22.8101 17.2174H1.19238Z" fill="#6DA544"/>
<path d="M1.19238 6.78262H22.8101C20.8692 2.76872 16.7587 0 12.0012 0C7.24376 0 3.13334 2.76872 1.19238 6.78262Z" fill="#D80027"/>
<path d="M9.91309 15.1302H14.087V13.3563L13.2522 13.7737L12.0001 12.5215L10.7479 13.7737L9.91309 13.3563V15.1302Z" fill="#FFDA44"/>
<path d="M7.52504 13.0432L7.71934 13.6411H8.34793L7.83934 14.0106L8.03363 14.6084L7.52504 14.2389L7.01645 14.6084L7.21074 14.0106L6.70215 13.6411H7.33074L7.52504 13.0432Z" fill="#FFDA44"/>
<path d="M8.12758 10.9565L8.32187 11.5544H8.95047L8.44187 11.9239L8.63612 12.5217L8.12758 12.1523L7.61898 12.5217L7.81328 11.9239L7.30469 11.5544H7.93328L8.12758 10.9565Z" fill="#FFDA44"/>
<path d="M9.85121 9.39124L10.0455 9.98908H10.6741L10.1656 10.3586L10.3598 10.9564L9.85121 10.587L9.34266 10.9564L9.53691 10.3586L9.02832 9.98908H9.65696L9.85121 9.39124Z" fill="#FFDA44"/>
<path d="M16.4743 13.0432L16.28 13.6411H15.6514L16.16 14.0106L15.9657 14.6084L16.4743 14.2389L16.9828 14.6084L16.7886 14.0106L17.2971 13.6411H16.6686L16.4743 13.0432Z" fill="#FFDA44"/>
<path d="M15.8737 10.9565L15.6794 11.5544H15.0508L15.5594 11.9239L15.3651 12.5217L15.8737 12.1523L16.3823 12.5217L16.188 11.9239L16.6966 11.5544H16.068L15.8737 10.9565Z" fill="#FFDA44"/>
<path d="M14.1519 9.39124L13.9576 9.98908H13.3291L13.8376 10.3586L13.6434 10.9564L14.1519 10.587L14.6605 10.9564L14.4662 10.3586L14.9748 9.98908H14.3462L14.1519 9.39124Z" fill="#FFDA44"/>
<path d="M12.0016 8.60852L12.1959 9.20636H12.8245L12.3159 9.57588L12.5102 10.1737L12.0016 9.80426L11.493 10.1737L11.6873 9.57588L11.1787 9.20636H11.8073L12.0016 8.60852Z" fill="#FFDA44"/>
</g>
<defs>
<clipPath id="clip0_458_3353">
<rect width="24" height="24" fill="white"/>
</clipPath>
</defs>
</svg>
