<svg width="25" height="25" viewBox="0 0 25 25" fill="none" xmlns="http://www.w3.org/2000/svg">
<g clip-path="url(#clip0_457_1900)">
<path d="M12.0071 24.0144C18.6384 24.0144 24.0142 18.6387 24.0142 12.0073C24.0142 5.376 18.6384 0.000244141 12.0071 0.000244141C5.37576 0.000244141 0 5.376 0 12.0073C0 18.6387 5.37576 24.0144 12.0071 24.0144Z" fill="#F0F0F0"/>
<path d="M23.2673 7.83093H0.746832C0.264156 9.13169 0 10.5386 0 12.0073C0 13.476 0.264156 14.8829 0.746832 16.1836H23.2674C23.75 14.8829 24.0142 13.476 24.0142 12.0073C24.0142 10.5386 23.75 9.13169 23.2673 7.83093Z" fill="#0052B4"/>
<path d="M12.0063 0.000366211C8.36705 0.000366211 5.10624 1.61963 2.9043 4.17672H21.1082C18.9063 1.61963 15.6455 0.000366211 12.0063 0.000366211Z" fill="#D80027"/>
<path d="M21.1083 19.838H2.9043C5.10624 22.3951 8.36705 24.0144 12.0063 24.0144C15.6455 24.0144 18.9063 22.3951 21.1083 19.838Z" fill="#D80027"/>
</g>
<defs>
<clipPath id="clip0_457_1900">
<rect width="24.0142" height="24.0142" fill="white"/>
</clipPath>
</defs>
</svg>
