<svg width="24" height="24" viewBox="0 0 24 24" fill="none" xmlns="http://www.w3.org/2000/svg">
<g clip-path="url(#clip0_458_3364)">
<path d="M12.0005 -0.000244141C11.1045 -0.000244141 10.2317 0.0988027 9.39184 0.28499L8.87012 11.9997L9.39184 23.7145C10.2318 23.9007 11.1046 23.9998 12.0005 23.9998C18.6279 23.9998 24.0005 18.6271 24.0005 11.9997C24.0004 5.37233 18.6279 -0.000244141 12.0005 -0.000244141V-0.000244141Z" fill="#496E2D"/>
<path d="M3.13138 3.91711C1.18682 6.04974 0.000976562 8.88614 0.000976562 11.9997C0.000976562 15.1132 1.18687 17.9496 3.13143 20.0823L3.65315 11.9997L3.13138 3.91711Z" fill="#496E2D"/>
<path d="M17.5502 9.05143C18.1406 7.40584 17.4773 5.61611 16.0539 4.72473C16.3099 4.75806 16.5662 4.81834 16.8191 4.90904C18.7177 5.59023 19.7046 7.68142 19.0234 9.57995C18.3422 11.4786 16.2511 12.4654 14.3525 11.7842C14.0995 11.6935 13.8633 11.577 13.6445 11.44C15.31 11.6569 16.9598 10.697 17.5502 9.05143V9.05143Z" fill="#F0F0F0"/>
<path d="M14.2766 4.2738L13.7636 4.93671L12.9747 4.65363L13.4465 5.34635L12.9336 6.00916L13.7382 5.77451L14.2101 6.46713L14.2355 5.62938L15.0401 5.39468L14.2513 5.11169L14.2766 4.2738Z" fill="#F0F0F0"/>
<path d="M15.6604 6.43372L15.1474 7.09658L14.3585 6.8135L14.8304 7.50622L14.3174 8.16903L15.122 7.93428L15.5939 8.62704L15.6193 7.78925L16.4239 7.5545L15.635 7.27147L15.6604 6.43372Z" fill="#F0F0F0"/>
<path d="M11.8333 5.06042L11.3202 5.72324L10.5313 5.44025L11.0032 6.13292L10.4902 6.79578L11.2948 6.56108L11.7667 7.25375L11.7921 6.416L12.5967 6.1813L11.8079 5.89822L11.8333 5.06042Z" fill="#F0F0F0"/>
<path d="M11.7776 7.53455L11.2646 8.19741L10.4757 7.91437L10.9477 8.60709L10.4346 9.2699L11.2393 9.03525L11.7112 9.72787L11.7365 8.89012L12.5412 8.65542L11.7522 8.37234L11.7776 7.53455Z" fill="#F0F0F0"/>
<path d="M14.1321 8.37927L13.6191 9.04208L12.8302 8.75905L13.3022 9.45177L12.7891 10.1145L13.5938 9.87988L14.0657 10.5726L14.091 9.73476L14.8957 9.5001L14.1067 9.21707L14.1321 8.37927Z" fill="#F0F0F0"/>
<path d="M3.12988 3.91719V20.0824C4.76488 21.8755 6.9366 23.1704 9.39074 23.7145V0.285034C6.93656 0.829065 4.76493 2.12399 3.12988 3.91719V3.91719Z" fill="#D80027"/>
<path d="M5.51888 6.31785L4.4707 5.53701V4.43277L5.51888 3.65198H7.0013L8.04947 4.43277V5.53701L7.0013 6.31785H5.51888Z" fill="#F0F0F0"/>
<path d="M6.26109 3.65198H5.51985L4.47168 4.43277V4.97263H6.26109V3.65198Z" fill="#FF9811"/>
<path d="M6.25977 6.3179H7.00095L8.04913 5.53705V4.97375H6.25977V6.3179Z" fill="#FF9811"/>
<path d="M5.51888 20.3478L4.4707 19.5669V18.4627L5.51888 17.6819H7.0013L8.04947 18.4627V19.5669L7.0013 20.3478H5.51888Z" fill="#F0F0F0"/>
<path d="M6.26109 17.6818H5.51985L4.47168 18.4626V19.0025H6.26109V17.6818Z" fill="#FF9811"/>
<path d="M6.25977 20.3476H7.00095L8.04913 19.5668V19.0035H6.25977V20.3476Z" fill="#FF9811"/>
<path d="M5.51888 13.3329L4.4707 12.552V11.4478L5.51888 10.667H7.0013L8.04947 11.4478V12.552L7.0013 13.3329H5.51888Z" fill="#496E2D"/>
<path d="M8.0867 15.051H7.63013V14.5945H6.82787L6.26059 14.0272L5.69335 14.5945H4.89109V15.051H4.43457V15.964H4.89109V16.4206H5.6933L6.26063 16.9879L6.82787 16.4206H7.63013V15.964H8.0867V15.051Z" fill="#496E2D"/>
<path d="M8.0867 8.03605H7.63013V7.57949H6.82787L6.26059 7.01221L5.69335 7.57949H4.89109V8.03605H4.43457V8.94908H4.89109V9.4056H5.6933L6.26063 9.97297L6.82787 9.4056H7.63013V8.94908H8.0867V8.03605Z" fill="#496E2D"/>
<path d="M5.73926 11.4781H6.78274V12.5216H5.73926V11.4781Z" fill="#D80027"/>
<path d="M6.26098 9.01414C6.54911 9.01414 6.7827 8.78056 6.7827 8.49242C6.7827 8.20428 6.54911 7.9707 6.26098 7.9707C5.97284 7.9707 5.73926 8.20428 5.73926 8.49242C5.73926 8.78056 5.97284 9.01414 6.26098 9.01414Z" fill="#D80027"/>
<path d="M6.26098 16.0293C6.54911 16.0293 6.7827 15.7957 6.7827 15.5076C6.7827 15.2194 6.54911 14.9858 6.26098 14.9858C5.97284 14.9858 5.73926 15.2194 5.73926 15.5076C5.73926 15.7957 5.97284 16.0293 6.26098 16.0293Z" fill="#D80027"/>
</g>
<defs>
<clipPath id="clip0_458_3364">
<rect width="24" height="24" fill="white"/>
</clipPath>
</defs>
</svg>
