<svg width="24" height="24" viewBox="0 0 24 24" fill="none" xmlns="http://www.w3.org/2000/svg">
<g clip-path="url(#clip0_458_3162)">
<path d="M0.566625 8.34752C0.199031 9.4992 -4.68667e-05 10.7261 8.27601e-09 11.9997C-4.68667e-05 13.2732 0.199031 14.5001 0.566672 15.6519L12 16.1737L23.4333 15.6519C23.8008 14.5001 24 13.2732 24 11.9997C24 10.7261 23.8009 9.4992 23.4333 8.34752L12 7.82581L0.566625 8.34752Z" fill="#F0F0F0"/>
<path d="M24 11.9997C24 11.2878 23.9377 10.5905 23.8187 9.91266H0.181313C0.0623437 10.5905 0 11.2877 0 11.9996C0 12.7116 0.0623906 13.4088 0.181313 14.0866H23.8187C23.9376 13.4087 24 12.7115 24 11.9997Z" fill="black"/>
<path d="M12.0017 23.9997C17.3556 23.9997 21.8898 20.4933 23.435 15.6519H0.568359C2.11359 20.4933 6.64786 23.9996 12.0017 23.9997V23.9997Z" fill="#338AF3"/>
<path d="M12.0017 -0.000122068C6.64791 -0.000122068 2.11369 3.50627 0.568359 8.34761L23.4349 8.34766C21.8898 3.50627 17.3555 -0.000215818 12.0017 -0.000122068V-0.000122068Z" fill="#338AF3"/>
</g>
<defs>
<clipPath id="clip0_458_3162">
<rect width="24" height="24" fill="white"/>
</clipPath>
</defs>
</svg>
