<svg width="25" height="25" viewBox="0 0 25 25" fill="none" xmlns="http://www.w3.org/2000/svg">
<g clip-path="url(#clip0_457_1960)">
<path d="M12.0081 24.0142C18.6394 24.0142 24.0152 18.6384 24.0152 12.0071C24.0152 5.37576 18.6394 0 12.0081 0C5.37673 0 0.000976562 5.37576 0.000976562 12.0071C0.000976562 18.6384 5.37673 24.0142 12.0081 24.0142Z" fill="#D80027"/>
<path d="M11.5165 9.81177L12.5017 11.1694L14.0972 10.652L13.1104 12.0085L14.0955 13.366L12.5006 12.8467L11.5139 14.2031L11.5149 12.5258L9.91992 12.0065L11.5155 11.4892L11.5165 9.81177Z" fill="#F0F0F0"/>
<path d="M8.82718 15.4007C6.95313 15.4007 5.43386 13.8814 5.43386 12.0073C5.43386 10.1333 6.95313 8.61402 8.82718 8.61402C9.41149 8.61402 9.96128 8.76181 10.4413 9.02189C9.68826 8.28542 8.65842 7.83093 7.52206 7.83093C5.21548 7.83093 3.3457 9.70076 3.3457 12.0073C3.3457 14.3138 5.21553 16.1836 7.52206 16.1836C8.65851 16.1836 9.68831 15.7291 10.4413 14.9927C9.96128 15.2529 9.41149 15.4007 8.82718 15.4007Z" fill="#F0F0F0"/>
</g>
<defs>
<clipPath id="clip0_457_1960">
<rect width="24.0142" height="24.0142" fill="white"/>
</clipPath>
</defs>
</svg>
