<svg width="24" height="24" viewBox="0 0 24 24" fill="none" xmlns="http://www.w3.org/2000/svg">
<g clip-path="url(#clip0_458_3282)">
<path d="M12 23.9997C18.6274 23.9997 24 18.6271 24 11.9997C24 5.37228 18.6274 -0.000305176 12 -0.000305176C5.37258 -0.000305176 0 5.37228 0 11.9997C0 18.6271 5.37258 23.9997 12 23.9997Z" fill="#F0F0F0"/>
<path d="M6.48373 16.6955L3.5127 20.4847C5.68413 22.6564 8.68381 23.9998 11.9976 23.9998C16.9584 23.9998 21.2153 20.9891 23.0428 16.6955H6.48373Z" fill="#FFDA44"/>
<path d="M23.0614 7.34774C21.2441 3.03097 16.9751 -6.10352e-05 11.9976 -6.10352e-05C8.68381 -6.10352e-05 5.68413 1.34333 3.5127 3.51505L6.51785 7.34774H23.0614Z" fill="#496E2D"/>
<path d="M2.6084 8.82599V15.1303H23.5864C23.8555 14.1323 23.9997 13.083 23.9997 11.9999C23.9997 10.9011 23.8517 9.83699 23.575 8.82599H2.6084Z" fill="black"/>
<path d="M3.51471 3.51459C-1.17157 8.20087 -1.17157 15.7989 3.51471 20.4852C5.45126 18.5487 7.31374 16.6862 12 11.9999L3.51471 3.51459Z" fill="#A2001D"/>
<path d="M4.85499 8.86938L5.63195 11.2608H8.1466L6.11232 12.7388L6.88923 15.1303L4.85499 13.6523L2.82066 15.1303L3.59776 12.7388L1.56348 11.2608H4.07795L4.85499 8.86938Z" fill="#FFDA44"/>
<path d="M2.58301 12.0001H7.13101V14.087H2.58301V12.0001Z" fill="#F0F0F0"/>
<path d="M7.99057 9.60729L7.25271 8.86938L4.85515 11.2669L2.45759 8.86938L1.71973 9.60729L4.1194 12.0027L1.71973 14.4024L2.45759 15.1303L4.85515 12.737L7.25271 15.1303L7.99057 14.4024L5.5909 12.0027L7.99057 9.60729Z" fill="black"/>
</g>
<defs>
<clipPath id="clip0_458_3282">
<rect width="24" height="24" fill="white"/>
</clipPath>
</defs>
</svg>
