<svg width="24" height="24" viewBox="0 0 24 24" fill="none" xmlns="http://www.w3.org/2000/svg">
<g clip-path="url(#clip0_458_3374)">
<path d="M0.566625 8.34818C0.199031 9.49981 -4.68667e-05 10.7267 8.276e-09 12.0002C-4.68667e-05 13.2738 0.199078 14.5008 0.566672 15.6524L12 16.1742L23.4333 15.6525C23.8009 14.5008 24 13.2738 24 12.0003C24 10.7267 23.8009 9.49981 23.4333 8.34813L12 7.82642L0.566625 8.34818Z" fill="#F0F0F0"/>
<path d="M23.4332 8.34813L11.9999 7.82642L0.5665 8.34813C0.457563 8.68957 0.363766 9.03771 0.285156 9.39162H23.7144C23.6359 9.03767 23.5421 8.68948 23.4332 8.34813Z" fill="#D80027"/>
<path d="M0.285156 14.6089C0.363672 14.9628 0.457469 15.3109 0.566406 15.6523L0.567531 15.6524L11.9997 16.1741L23.433 15.6524C23.542 15.3109 23.6357 14.9628 23.7143 14.6089H0.285156Z" fill="#D80027"/>
<path d="M11.9997 24.0002C17.3536 24.0002 21.8878 20.4938 23.433 15.6523H0.566406C2.11164 20.4937 6.64595 24.0002 11.9997 24.0002V24.0002Z" fill="#6DA544"/>
<path d="M11.9997 0.000366211C6.64595 0.000413086 2.11173 3.5068 0.566406 8.34819L23.433 8.34824C21.8879 3.50676 17.3536 0.000319336 11.9997 0.000366211V0.000366211Z" fill="#338AF3"/>
<path d="M5.48376 4.95728C5.48376 3.83336 6.27365 2.89445 7.32848 2.66411C7.16638 2.62867 6.99815 2.6095 6.82537 2.6095C5.52871 2.6095 4.47754 3.66062 4.47754 4.95732C4.47754 6.25403 5.52862 7.30515 6.82537 7.30515C6.99815 7.30515 7.16634 7.28593 7.32848 7.25054C6.2737 7.02011 5.48376 6.0812 5.48376 4.95728V4.95728Z" fill="#F0F0F0"/>
<path d="M8.71628 6.02417L8.87519 6.51331H9.3895L8.97344 6.81565L9.13234 7.30479L8.71628 7.0025L8.30012 7.30479L8.45908 6.81565L8.04297 6.51331H8.55728L8.71628 6.02417Z" fill="#F0F0F0"/>
<path d="M10.3578 6.02417L10.5167 6.51331H11.0311L10.6149 6.81565L10.7739 7.30479L10.3578 7.0025L9.94168 7.30479L10.1006 6.81565L9.68457 6.51331H10.1988L10.3578 6.02417Z" fill="#F0F0F0"/>
<path d="M11.9995 6.02417L12.1584 6.51331H12.6727L12.2566 6.81565L12.4155 7.30479L11.9995 7.0025L11.5833 7.30479L11.7423 6.81565L11.3262 6.51331H11.8405L11.9995 6.02417Z" fill="#F0F0F0"/>
<path d="M13.6401 6.02417L13.7991 6.51331H14.3133L13.8973 6.81565L14.0562 7.30479L13.6401 7.0025L13.224 7.30479L13.383 6.81565L12.9668 6.51331H13.4811L13.6401 6.02417Z" fill="#F0F0F0"/>
<path d="M15.2836 6.02417L15.4425 6.51331H15.9568L15.5408 6.81565L15.6997 7.30479L15.2836 7.0025L14.8675 7.30479L15.0264 6.81565L14.6104 6.51331H15.1246L15.2836 6.02417Z" fill="#F0F0F0"/>
<path d="M10.3578 4.31653L10.5167 4.80562H11.0311L10.6149 5.10801L10.7739 5.59711L10.3578 5.29481L9.94168 5.59711L10.1006 5.10801L9.68457 4.80562H10.1988L10.3578 4.31653Z" fill="#F0F0F0"/>
<path d="M11.9995 4.31653L12.1584 4.80562H12.6727L12.2566 5.10801L12.4155 5.59711L11.9995 5.29481L11.5833 5.59711L11.7423 5.10801L11.3262 4.80562H11.8405L11.9995 4.31653Z" fill="#F0F0F0"/>
<path d="M13.6401 4.31653L13.7991 4.80562H14.3133L13.8973 5.10801L14.0562 5.59711L13.6401 5.29481L13.224 5.59711L13.383 5.10801L12.9668 4.80562H13.4811L13.6401 4.31653Z" fill="#F0F0F0"/>
<path d="M15.2836 4.31653L15.4425 4.80562H15.9568L15.5408 5.10801L15.6997 5.59711L15.2836 5.29481L14.8675 5.59711L15.0264 5.10801L14.6104 4.80562H15.1246L15.2836 4.31653Z" fill="#F0F0F0"/>
<path d="M11.9995 2.60925L12.1584 3.09844H12.6727L12.2566 3.40074L12.4155 3.88992L11.9995 3.58763L11.5833 3.88992L11.7423 3.40074L11.3262 3.09844H11.8405L11.9995 2.60925Z" fill="#F0F0F0"/>
<path d="M13.6401 2.60925L13.7991 3.09844H14.3133L13.8973 3.40074L14.0562 3.88992L13.6401 3.58763L13.224 3.88992L13.383 3.40074L12.9668 3.09844H13.4811L13.6401 2.60925Z" fill="#F0F0F0"/>
<path d="M15.2836 2.60925L15.4425 3.09844H15.9568L15.5408 3.40074L15.6997 3.88992L15.2836 3.58763L14.8675 3.88992L15.0264 3.40074L14.6104 3.09844H15.1246L15.2836 2.60925Z" fill="#F0F0F0"/>
</g>
<defs>
<clipPath id="clip0_458_3374">
<rect width="24" height="24" fill="white"/>
</clipPath>
</defs>
</svg>
