<svg width="24" height="24" viewBox="0 0 24 24" fill="none" xmlns="http://www.w3.org/2000/svg">
<g clip-path="url(#clip0_458_3328)">
<path d="M17.2165 1.1906C15.6389 0.427753 13.869 -0.00012207 11.9991 -0.00012207C10.1293 -0.00012207 8.35939 0.427753 6.78177 1.1906L5.73828 11.9999L6.78177 22.8092C8.35939 23.572 10.1293 23.9999 11.9991 23.9999C13.869 23.9999 15.6389 23.572 17.2165 22.8092L18.26 11.9999L17.2165 1.1906Z" fill="#FFDA44"/>
<path d="M11.999 7.82617L13.0349 11.0146H16.3878L13.6754 12.9854L14.7114 16.174L11.999 14.2033L9.28655 16.174L10.3227 12.9854L7.61035 11.0146H10.963L11.999 7.82617Z" fill="#496E2D"/>
<path d="M6.78262 1.19116C2.76872 3.13212 0 7.24254 0 12C0 16.7575 2.76872 20.8679 6.78262 22.8089V1.19116Z" fill="#496E2D"/>
<path d="M17.2178 1.19128V22.809C21.2317 20.8681 24.0004 16.7576 24.0004 12.0001C24.0004 7.24266 21.2317 3.13224 17.2178 1.19128Z" fill="#D80027"/>
</g>
<defs>
<clipPath id="clip0_458_3328">
<rect width="24" height="24" fill="white"/>
</clipPath>
</defs>
</svg>
