<svg width="24" height="24" viewBox="0 0 24 24" fill="none" xmlns="http://www.w3.org/2000/svg">
<g clip-path="url(#clip0_458_3232)">
<path d="M12 24.0002C18.6274 24.0002 24 18.6277 24 12.0002C24 5.37283 18.6274 0.000244141 12 0.000244141C5.37258 0.000244141 0 5.37283 0 12.0002C0 18.6277 5.37258 24.0002 12 24.0002Z" fill="#D80027"/>
<path d="M13.2378 9.07825C12.965 10.2126 12.4805 9.99625 12.2427 10.9855C10.8419 10.6487 9.97924 9.24011 10.316 7.83925C10.6527 6.43848 12.0614 5.5758 13.4622 5.91259C12.9866 7.89105 13.4817 8.06373 13.2378 9.07825Z" fill="#F0F0F0"/>
<path d="M9.602 9.91871C10.5965 10.5286 10.241 10.9226 11.1083 11.4545C10.3551 12.6827 8.74897 13.0678 7.52075 12.3146C6.29258 11.5615 5.90741 9.95522 6.66059 8.72705C8.39525 9.79074 8.71236 9.37322 9.602 9.91871V9.91871Z" fill="#F0F0F0"/>
<path d="M9.27946 13.6356C10.1669 12.8782 10.4316 13.3381 11.2055 12.6776C12.1409 13.7734 12.0108 15.42 10.915 16.3554C9.81918 17.2908 8.17255 17.1605 7.2373 16.0648C8.78484 14.7438 8.48573 14.313 9.27946 13.6356Z" fill="#F0F0F0"/>
<path d="M12.7145 15.0922C12.2683 14.0142 12.7875 13.9043 12.3984 12.9643C13.7296 12.4134 15.2555 13.0459 15.8065 14.3771C16.3574 15.7083 15.7248 17.2342 14.3936 17.7851C13.6156 15.905 13.1136 16.0564 12.7145 15.0922Z" fill="#F0F0F0"/>
<path d="M15.1608 12.2755C13.9977 12.3668 14.0535 11.839 13.0394 11.9186C12.9267 10.4824 13.9999 9.22654 15.4362 9.1138C16.8724 9.00135 18.1282 10.0744 18.2408 11.5108C16.2122 11.6698 16.201 12.194 15.1608 12.2755Z" fill="#F0F0F0"/>
</g>
<defs>
<clipPath id="clip0_458_3232">
<rect width="24" height="24" fill="white"/>
</clipPath>
</defs>
</svg>
