<svg width="25" height="25" viewBox="0 0 25 25" fill="none" xmlns="http://www.w3.org/2000/svg">
<g clip-path="url(#clip0_458_3181)">
<path d="M12.0071 24.0142C18.6384 24.0142 24.0142 18.6384 24.0142 12.0071C24.0142 5.37576 18.6384 0 12.0071 0C5.37576 0 0 5.37576 0 12.0071C0 18.6384 5.37576 24.0142 12.0071 24.0142Z" fill="#D80027"/>
<path d="M6.57076 7.30725L7.60731 10.4966H10.9608L8.24987 12.4712L9.28642 15.6606L6.57076 13.6907L3.85509 15.6606L4.89633 12.4712L2.18066 10.4966H5.53421L6.57076 7.30725Z" fill="#FFDA44"/>
<path d="M14.234 18.5968L13.4414 17.6213L12.2688 18.0762L12.9489 17.0209L12.1562 16.0406L13.371 16.3643L14.0558 15.309L14.1215 16.566L15.3409 16.8896L14.1637 17.3398L14.234 18.5968Z" fill="#FFDA44"/>
<path d="M15.8092 15.7358L16.1844 14.5351L15.1572 13.8081L16.4142 13.7893L16.7847 12.5886L17.1928 13.78L18.4498 13.7659L17.4414 14.5163L17.8448 15.7077L16.8176 14.9807L15.8092 15.7358Z" fill="#FFDA44"/>
<path d="M17.9351 8.81289L17.3817 9.94325L18.2822 10.8203L17.0393 10.6421L16.4858 11.7678L16.2701 10.5295L15.0225 10.3513L16.1387 9.76502L15.923 8.52209L16.8235 9.39917L17.9351 8.81289Z" fill="#FFDA44"/>
<path d="M14.2663 5.38904L14.1725 6.64134L15.3404 7.11506L14.1162 7.41524L14.0271 8.67223L13.3658 7.60285L12.1416 7.90302L12.953 6.94152L12.287 5.87683L13.4549 6.35054L14.2663 5.38904Z" fill="#FFDA44"/>
</g>
<defs>
<clipPath id="clip0_458_3181">
<rect width="24.0142" height="24.0142" fill="white"/>
</clipPath>
</defs>
</svg>
